<svg height="35" viewBox="0 0 158 35" width="158" xmlns="http://www.w3.org/2000/svg"><g fill="#3a4949" fill-rule="evenodd"><path d="m60.484 6.6122376c.621.10203694 1.2.11404128 1.828.10203694.243-.00400145.516-.02400869.758-.06302282.121-.01900688.289-.04301557.403-.0820297.117-.03901412.242-.07002535.351-.10903948v.21107642c-.422.21107643-.726.62922782-.91 1.10940167-.184.47717276-.297 1.02437088-.344 1.62959-.015.3201159-.031.64923507-.043.98135527-.015.3361217-.023.8082927-.023 1.4185136-.016.7102572-.024 2.2348091-.024 4.5636523 0 .4411597-.007 1.2624571-.023 2.4658928-.016 1.3244796-.023 2.3368461-.023 3.0360993 0 1.0943962.093 3.1341347.093 3.2391727 0 .2891047-.07.4341572-.207.4341572-.09 0-.32-.2190793-.683-.660239l-12.598-14.0830989h-.137c-.031.6832474-.043 1.4885389-.043 2.4188758 0 .3781369.004.9333379.02 1.6646026v1.4845375c0 2.1297711.062 4.4115973.183 6.8464788.032.5041826.157.9413409.376 1.3124752.222.3751358.55.6532365.992.8523086v.1640594c-.989-.0740268-1.848-.0900326-2.578-.0900326-.258 0-.52 0-.778.0200073-.136 0-.281.0230083-.418.0350126-.117.0080029-.238.0190069-.379.0350127v-.1640594c.379-.1990721.692-.4881767.938-.8403042.242-.3481261.371-.7502717.387-1.2074372.031-1.5395574.046-3.8453922.046-6.9165042 0-.3831387.008-1.1564186.02-2.3288431.016-1.0043637.027-1.8286621.027-2.4658928 0-.3161145-.004-.6332293-.007-.9493437-.004-.2821022-.012-.5632039-.02-.84430572-.004-.1640594-.008-.3281188-.016-.48817675-.004-.16005795-.007-.32511771-.031-.48117421-.047-.29310612-.121-.58621224-.23-.85931112-.032-.08603115-.071-.16806085-.11-.2460891-.195-.40314596-.539-.76627744-1.027-1.08639334v-.20307352c.519.04301557.875.0820297 1.211.11304093s.691.0740268 1.027.09003259l12.551 14.49724884h.18c.015-1.1454147.023-2.5049069.023-4.7717276 0-1.1714242-.012-2.3678573-.043-3.5832974-.031-1.2184411-.078-2.3988685-.137-3.54028179-.031-.60922057-.117-1.10540021-.25-1.49254038-.14-.39014125-.457-.77728142-.961-1.10940167v-.21107642c0 .01900688.282.0740268.305.07802825.121.02300833.207.05501992.324.07402681"/><path d="m75.023 10.496644-2.769 6.5843839c.82.047017 1.769.0700253 2.637.0700253.879 0 1.789-.0230083 2.625-.0700253zm7.227 12.5555458c.453 1.1564187 1.219 1.9657117 2.133 2.3288432v.1720623c-.836-.1370497-1.676-.1840667-2.512-.1840667-.898 0-1.793.047017-2.691.1840667v-.1720623c.168-.160058.261-.2190794.476-.508184.27-.3791373.254-.7192604.254-.9183325 0-.1370496-.019-.2891047-.058-.4571655-.036-.1680609-.079-.312113-.125-.4331569l-1.782-4.8847685c-1.172-.1060384-2.175-.160058-3.011-.160058-1.141 0-2.2.0540196-3.172.160058l-2.032 5.294917c-.179.472171-.273.8282999-.273 1.0703876 0 .3241173.109.602218.414.8363028v.1680608c-.609-.0900326-1.226-.1090395-1.851-.1090395-.684 0-1.254.0190069-1.922.1090395v-.1680608c1.269-.3361217 2-1.1174046 2.515-2.3638559l5.524-13.35283447c.043-.13704962.066-.26609634.066-.38714017 0-.44516117-.164-.89432379-.488-1.35949221-.328-.46516842-.746-.90632814-1.25-1.24244984v-.21507787c.344.05802101.746.1560565 1.273.1800652.524.02300833 1 .03101122 1.426.03101122h.613l1.051 2.67296777z"/><path d="m100.906 6.90134227c-.273.53519377-.414.80929301-.601 1.38750235-.075.2380862-.188.71926041-.258.95334517-.035.11704237-.106.37913727-.274.30511046-.156-.06302281-.101-.14905396-.117-.45316407-.015-.2460891-.035-.41815139-.066-.52418978-.047-.21507787-.188-.39814415-.422-.52719088-.238-.12904672-.398-.19907207-.648-.20707497-.18-.00400145-.375 0-.754 0-1.067-.01200435-2.399 0-3.571 0 0 0 .004.46516842.008 1.27346107.012 1.62158708-.031 4.53664248 0 7.33465558.031 2.9860811.07 5.8581209.121 6.8734886.031.5001811.219.8683143.442 1.2394487.218.3751358.527.6442333.988.8282999l.004.1640594c-.988-.0740268-1.852-.0660239-2.578-.0660239-.735 0-1.516-.0080029-2.356.0660239l.004-.1640594c.41-.1800652.692-.4421601.934-.7932872.246-.348126.429-.7932872.445-1.2464513.027-1.5395574-.012-3.8063781-.012-6.87749 0-1.6145846-.015-6.2722709-.047-7.39767841l-.019-1.23444694c-.977 0-1.809 0-2.5.03501268-.691.03901412-1.379.13304817-2.067.28510322-.242.04701702-.515.14105107-.82.28510322-.304.14505252-.578.31711482-.82.51618689-.078.05902137-.176.14405216-.297.25009055-.273.25809344-.477.37113437-.598.37113437-.105 0-.136-.05101847-.136-.14405215.023-.19206954.183-.39914452.472-.81329446.282-.38313872.469-.80929301.676-1.23844839.152-.32411735.313-.66023904.406-1.00436364h.274c.23.25809345.676.28110178 1.347.29310612 1.262.01900689 3.149 0 5.661 0 .914 0 1.832.03101123 2.746 0 1.031-.02801014 2.062.0080029 3.093 0 .5 0 .934-.11704237 1.391-.29710757h.305c-.11.16005795-.27.35913003-.356.52719088"/><path d="m109.586 8.22682217c-.883.3781369-1.645.92133357-2.293 1.61758565-.645.70325458-1.145 1.54355888-1.492 2.52391378-.352.9813553-.528 2.0517429-.528 3.2081616 0 1.1724244.18 2.3018334.539 3.3882267.356 1.0903948.856 2.0667483 1.504 2.9340623.645.8683144 1.411 1.5435588 2.293 2.0327359.883.4881768 1.832.7302644 2.852.7302644 1.051 0 2.023-.1790648 2.922-.5351937.898-.35913 1.683-.8753169 2.363-1.5555632.676-.6752445 1.195-1.488539 1.563-2.4418841.363-.9493437.546-2.0047258.546-3.1611445 0-1.430518-.187-2.7239863-.558-3.880405s-.891-2.1417754-1.551-2.958071c-.664-.81329441-1.445-1.42651643-2.351-1.84466783-.907-.42215284-1.883-.62922781-2.934-.62922781-1.031 0-1.992.18806809-2.875.57120681m6.914-.98135531c1.203.4841753 2.215 1.16842303 3.035 2.05174285.824.88331979 1.445 1.90669029 1.871 3.07111189s.641 2.4148743.641 3.7553597c0 1.3835009-.246 2.6729677-.742 3.8684006-.493 1.1964331-1.18 2.2278065-2.055 3.0951206-.875.867314-1.895 1.5355559-3.066 2.0087272-1.172.472171-2.414.7072561-3.723.7072561-1.293 0-2.523-.2460891-3.695-.7422687-1.172-.4931786-2.2-1.1884303-3.082-2.0757516-.879-.8903223-1.571-1.9216957-2.063-3.0941202-.496-1.1724245-.742-2.4108729-.742-3.720347s.246-2.5479225.742-3.720347c.492-1.1724245 1.184-2.2077993 2.063-3.10612457.882-.89932561 1.906-1.59457733 3.07-2.09075697 1.164-.4921782 2.398-.7382673 3.707-.7382673 1.492 0 2.84.24208765 4.039.7302644"/><path d="m2.383 16.50682c-.223-3.2631815 1.09-6.69042232 4.25-8.04591308.906-.38714017 1.844-.57020645 2.754-.57020645 1.672 0 3.281.61322202 4.547 1.71462079-.27.44216004-.629.89532414-.95 1.34448674-1.679 2.3488505-3.554 4.5836596-5.554 6.6974249-1.153 1.2114386-2.399 2.3648562-3.629 3.5212749-.836-1.4265165-1.317-3.0911192-1.418-4.6616878zm13.691 4.3455733s-.355.5822108-.445.7032547c-1.734 2.394867-5.285 3.9584331-8.262 2.8170199-.898-.3481261-1.672-.9103296-2.332-1.582573.344-.4261543.692-.867314 1.035-1.2934683 1.766-2.1727867 3.457-4.4155987 5.364-6.4553372 1.101-1.1844288 5.25-5.23189425 5.25-5.23189425 0-.01200435-.192-.22708222-.211-.24708946-.727-.77327997-1.582-1.42551612-2.539-1.88668309-.145-.05902137-.45-.19206954-.45-.19206954-4.23-1.71562115-9.246-.35913002-11.836 3.43524374-2.273 3.3562152-2.191 7.8858551.223 11.1480362 2.43 3.2631815 6.75 4.587661 10.613 3.3652184 1.793-.5632039 3.407-1.7666396 4.082-2.5759326.668-.8002898.872-1.1134031.872-1.1134031z"/><path d="m33.238 14.2520036c-.926.0390141-1.863.0080029-2.832.0080029-1.164 0-2.359-.0280101-3.465-.0900326l3.59-8.80018614.469-1.19143137 3.816 10.03863451zm7.16 8.0419116-7.386-18.51870477-1.407-3.5872988h-.828c-.574 0-1.211-.01500544-1.918-.04701703-.703-.03101122-1.23-.06202245-1.703-.10503803v.21107643c.676.44916262 1.235.98835784 1.672 1.60958276.442.62522636.66 1.23144585.66 1.82566099 0 .1640594-.031.33512133-.093.51918797l-7.418 17.94049548c-.692 1.6756067-1.813 2.7579985-3.364 3.2511771v.1560565c.899-.1210438 1.649-.1560565 2.571-.1560565.836 0 1.664.0350127 2.48.1560565l-.004-.1640594c-.367-.3711344-.547-.762276-.547-1.1924317 0-.3241174.121-.8042912.367-1.4375205l2.727-7.1155762c1.309-.1410511 2.731-.2110764 4.262-.2110764 1.125 0 2.472.0700253 4.047.2110764l.004.0190069.843.0860311 2.313 6.0291829s.437 1.0473792.34 1.4465237c-.328 1.3204781-.848 1.582573-1.7 2.1647838v.1640594c1.157-.1680608 2.313-.2500905 3.469-.2500905 1.125 0 2.25.094034 3.371.2730988v-.2150778c-1.222-.4881768-2.144-1.5075459-2.758-3.0631091z"/><path d="m146.273 24.5217218c-.359-.4031459-.582-.8793183-.675-1.4265164-.133-.9143311-.266-1.8246607-.399-2.7399921-.277-1.8746787-.551-3.7473567-.824-5.6230358l-.68-4.6306766c-.125-.87431655-.191-1.60558131.239-2.4178754.242-.45416444.558-.81729591.957-1.01236654v-.21107642c-.731.0980355-1.493.21107642-2.239.21107642l-1.117 2.65696197-5.328 12.48151897-6.969-15.13848094c-.82 0-1.578-.12104382-2.238-.21107642v.21107642c.945.63723072 1.438 1.36749511 1.414 2.33684607 0 0-1.824 13.48888377-1.824 13.49288517-.149 1.0943963-.543 2.3328446-1.602 2.8840442v.1640594c.032-.0040014.086-.0080029.117-.0120043.11-.0120044.204-.0150055.305-.0230084.246-.0160058.492-.0350126.738-.0430155.11-.0040015.25-.0040015.418-.0040015.727 0 1.555.0080029 2.571.0820297v-.1640594c-.442-.1840666-.797-.4141499-.996-.7272633-.196-.312113-.297-.6952517-.297-1.1524172 0-.05502.004-.0940341.004-.1410511.004-.1400507.007-.2610945.019-.3401232l1.403-10.713879s3.992 8.1349453 4.144 8.4560616c.395.8162955.789 1.6485969 1.203 2.4578899.383.7502716.715 1.3674951 1.117 2.1217682.039.0660239.118.2030735.211.2030735.078 0 .176-.1370496.223-.254092.055-.1330482 5.547-13.094741 5.547-13.094741s1.605 11.7542557 1.625 11.9223165c.019.1680609-.016.4731713-.129.610221-.117.1360492-.207.2500905-.402.3711343-.231.1360493-.457.2771004-.457.2771004v.1680608c.898-.1370496 1.8-.149054 2.699-.149054.836 0 1.672.0120044 2.511.149054v-.1640594c-.523-.1920695-.933-.461167-1.289-.8633126"/><path d="m152.738 25.5570967v-.1840666c1.215-.6402318 1.348-1.7036168 1.367-2.9500681.016-1.2384484.024-2.4778972.028-3.7163456.008-3.1611445.086-6.3342933-.078-9.48743494-.059-1.07538936-.41-1.9817175-1.317-2.59493952v-.16005795c1.309.12104383 2.645.21507787 3.957.09703513.364-.01500543.684-.0820297.879-.09703513v.16005795c-.929.46916987-1.258 1.6375929-1.328 2.60294241-.226 4.72771175-.262 9.42041075-.027 14.15712565.043.7302644.687 1.6916125 1.351 1.9927215v.1840667c-1.613-.1250453-3.215-.1530555-4.832-.0040015"/><path d="m129.370039 33.2532812c0 .120235-.001582.2209567-.004746.302168s-.008965.149238-.017402.204082l1.240312-.0189843c.141329-.0021094.268945-.0195116.382852-.0522071.113907-.0326954.211464-.0875386.292676-.1645312.081211-.0769926.143964-.1792963.188261-.3069141s.066446-.2874014.066446-.4793555h.221484l-.037969 1.262461h-3.344414v-.2151563c.10336-.0021093.185097-.0184568.245215-.0490429.060117-.0305861.104941-.0722459.134473-.1249805.029531-.0527346.047988-.1154879.055371-.1882617s.011074-.1534566.011074-.2420508v-2.9900392c0-.0885942.001582-.172441.004746-.251543.003164-.0791019.008965-.1513473.017402-.2167383l-.468281.0284766v-.2879297h3.116602l.03164 1.1358985h-.211992c0-.185626-.021621-.3374994-.064863-.455625s-.102304-.2109372-.177188-.2784376c-.074883-.0675003-.162948-.1133787-.264199-.1376367-.10125-.0242579-.210937-.0363867-.329062-.0363867l-.598008.0094922c-.120235.0063281-.213574.0253123-.28002.0569531-.066445.0316408-.115488.0785739-.147129.1408008-.03164.0622269-.050097.1408003-.055371.2357227-.005273.0949223-.00791.2088274-.00791.3417187v1.0441407h1.215l-.047461-.5600391h.28793v1.363711h-.211992c0-.1265631-.011074-.2272848-.033223-.302168-.022148-.0748832-.056953-.1328904-.104414-.1740234s-.107578-.0680273-.180352-.0806836c-.072773-.0126563-.160839-.0189844-.264199-.0189844h-.091758c-.03164 0-.221482.0073827-.569531.0221484zm3.41086.7973438h-.335391l-.037969-1.3795313h.249961c.012656.1919541.053789.3601751.123399.504668.069609.1444929.160839.2652534.273691.3622852.112852.0970317.244159.1703317.393926.2199023.149766.0495706.310077.0743555.480937.0743555.126563 0 .246269-.0174022.359121-.0522071.112853-.0348048.211992-.086484.297422-.155039.08543-.0685551.15293-.1534566.2025-.2547071.049571-.1012505.074356-.2172649.074356-.3480469 0-.1582039-.034805-.2942572-.104414-.408164-.06961-.1139069-.161894-.2146285-.276856-.302168-.114961-.0875395-.245741-.1666403-.392343-.2373047-.146603-.0706644-.29584-.1413278-.447715-.2119922-.151876-.0706644-.301113-.1455465-.447715-.2246485-.146603-.0791019-.277382-.1708588-.392344-.2752734-.114961-.1044146-.207246-.2262298-.276855-.3654492-.06961-.1392195-.104415-.3048038-.104415-.4967579 0-.0738285.008438-.1529292.025313-.2373047.016875-.0843754.044824-.1687495.083848-.253125.039023-.0843754.090702-.1661129.155039-.2452148.064336-.079102.145019-.1487107.242051-.2088282.097031-.0601174.211991-.1081053.344882-.1439648.132892-.0358596.286874-.0537891.461953-.0537891.084376 0 .174023.0052734.268946.0158203.094922.010547.191425.0284765.289512.0537891.098086.0253126.195644.0595896.292675.102832.097032.0432424.189844.0975583.278438.1629493l-.025313-.2784375h.329063v1.4206641h-.234141c-.010547-.1560946-.040605-.3074407-.090176-.454043-.04957-.1466023-.121816-.2763276-.216738-.3891797s-.211991-.2035544-.351211-.2721094c-.139219-.068555-.303749-.102832-.493594-.102832-.135 0-.254179.0205662-.357539.0616992s-.189843.0965035-.259453.1661133c-.06961.0696097-.122343.1502925-.158203.2420508-.035859.0917582-.053789.1882612-.053789.2895117 0 .147657.035332.2758002.105996.3844336.070665.1086334.164003.2051363.28002.2895117.116016.0843755.24785.1613669.395507.2309766s.298476.1397458.452461.2104102c.153986.0706644.304804.1466011.452461.2278125.147657.0812113.279492.1750776.395508.2816016.116016.1065239.209355.2304485.28002.3717773.070664.1413288.105996.3079678.105996.4999219 0 .1792978-.03375.3443547-.10125.4951758s-.165585.2805463-.294258.3891797c-.128672.1086334-.287401.1935349-.476191.2547071-.18879.0611721-.403417.0917578-.643887.0917578-.097032 0-.196699-.0068554-.299004-.0205664s-.203554-.0342772-.30375-.0616993c-.100196-.027422-.197226-.0622263-.291094-.104414-.093867-.0421877-.180878-.0907029-.261035-.1455469zm6.676172-3.2178517c-.004219-.1919541-.018984-.3591204-.044297-.5015039s-.069609-.2605074-.132891-.354375c-.063281-.0938677-.14871-.1640037-.256289-.2104102-.107578-.0464065-.244686-.0696094-.411328-.0696094l-.547383.0031641-.009492 3.5279298c0 .2320324-.006328.4028901-.018984.5125782l.53789-.0253125v.2847656h-1.521914v-.2151563c.120235-.0042187.210937-.0274216.27211-.0696093.061172-.0421877.104413-.098613.129726-.1692774s.037969-.1534565.037969-.2483789v-.3069141l.009492-3.284297-.670781.0031641c-.13711 0-.252597.0226755-.346465.0680273s-.170332.1144332-.229395.2072461c-.059062.092813-.101777.2093548-.128144.3496289-.026367.1402742-.039551.3063858-.039551.4983399h-.240469l.037969-1.3700391h3.777891l.037969 1.3700391zm1.249805 2.8571486c0 .0569534-.010547.1107419-.031641.1613672-.021094.0506252-.049043.0949216-.083848.1328906-.034805.0379689-.074882.0674999-.120234.0885937-.045352.0210939-.09334.0316407-.143965.0316407s-.098613-.0105468-.143965-.0316407c-.045352-.0210938-.085429-.0506248-.120234-.0885937-.034805-.037969-.062227-.0822654-.082266-.1328906-.020039-.0506253-.030058-.1044138-.030058-.1613672 0-.0590628.010546-.1144334.03164-.1661133.021094-.05168.049043-.0965037.083848-.1344727.034805-.0379689.07541-.0680272.121816-.0901758.046407-.0221485.094922-.0332226.145547-.0332226.052735 0 .101777.0110741.147129.0332226.045352.0221486.084902.0522069.118652.0901758.033751.037969.060117.0827927.079102.1344727.018984.0516799.028477.1070505.028477.1661133zm2.95207-3.6196877c.042188.0464065.072246.0943943.090176.1439649.017929.0495705.026894.098613.026894.1471289 0 .027422-.005273.0590623-.01582.0949219-.010547.0358595-.028476.0690818-.053789.0996679s-.058008.0564257-.098086.0775196c-.040078.0210938-.089648.0305859-.148711.0284765-.097032-.0042187-.170859-.0406051-.221484-.1091601-.050626-.0685551-.075938-.1513472-.075938-.2483789 0-.0907036.028476-.1914253.08543-.302168.056953-.1107428.142382-.2135738.256289-.3084961.113907-.0949224.255233-.1745505.423984-.2388868.168751-.0643362.364921-.0965039.588516-.0965039.17086 0 .338026.0200389.501504.0601172.163477.0400783.309023.1059957.43664.1977539.127618.0917583.229922.2130462.306915.3638672.076992.1508211.115488.3359169.115488.555293 0 .1096881-.023203.2267572-.06961.351211-.046406.1244537-.120233.2583977-.221484.4018359-.10125.1434383-.232558.2968938-.393926.4603711-.161368.1634774-.35701.3401358-.586933.5299805-.147657.120235-.282656.2383588-.405.354375-.122345.1160163-.228867.22623-.319571.3306446-.090703.1044146-.164003.2024995-.219902.2942578s-.09123.1756051-.105996.251543l1.148555.0316406c.158204.0042188.303222.0068555.435058.0079102.131837.0010547.245742-.0110741.341719-.0363867.095977-.0253127.170859-.0701364.224648-.1344727.05379-.0643363.080684-.1597845.080684-.2863477h.196172l-.041133.908086h-2.806523c0-.2278136.036386-.4303116.10916-.6075s.168749-.3411907.287929-.4920118c.119181-.150821.255234-.2958391.408164-.4350586.152931-.1392194.310605-.2858195.473028-.4398047.280548-.267892.483573-.5167957.609082-.7467188.125508-.229923.188262-.4514052.188262-.6644531 0-.120235-.012129-.2399408-.036387-.3591211s-.066972-.2267574-.128145-.3227344c-.061172-.0959771-.142909-.1734958-.245214-.2325586-.102306-.0590628-.231504-.0885938-.387598-.0885938-.088594 0-.173496.0121288-.254707.0363868-.081212.0242579-.155039.0569529-.221485.0980859-.066445.041133-.123398.0896482-.170859.1455469s-.082793.1154879-.105996.1787695zm3.689297 1.5472266c0 .1497664.005801.3090226.017402.4777735.011602.1687508.032168.3359172.0617.5015039.029531.1655868.069081.3243157.118652.4761915.04957.1518757.112324.2852924.188262.4002539.075937.1149615.166112.2067184.270527.2752734.104415.0685551.22623.1028321.365449.1028321.122345 0 .230976-.0274216.325899-.0822657.094922-.054844.177714-.1291987.248379-.2230664.070664-.0938676.129726-.2051361.177187-.3338086s.08543-.2668352.113906-.4144922c.028477-.147657.049043-.3016398.0617-.4619531.012656-.1603133.018984-.3195696.018984-.4777735 0-.175079-.006328-.3522647-.018984-.5315625-.012657-.1792978-.03375-.3522648-.063282-.5189063-.029531-.1666415-.068554-.323261-.11707-.4698633s-.108632-.2742182-.180352-.3828516c-.071719-.1086333-.15662-.1940622-.254707-.256289-.098086-.0622269-.210409-.0933399-.336972-.0933399-.124454 0-.235722.0274216-.333809.0822656-.098086.0548441-.184043.1297261-.257871.2246485-.073829.0949223-.136054.2072454-.18668.3369727-.050625.1297272-.092285.2689445-.12498.4176562-.032696.1487117-.056426.3042766-.071192.4666993-.014765.1624227-.022148.3237882-.022148.4841015zm-.667617.1328907c0-.1814072.013711-.366503.041133-.555293s.069609-.3717765.126562-.5489649.130254-.3438273.219902-.4999219c.089649-.1560945.196699-.2926752.321153-.4097461s.267362-.2093551.42873-.2768555c.161368-.0675003.342245-.10125.542637-.10125.208829 0 .393925.0332224.555293.099668s.302167.1571479.422402.2721094.221484.2494328.30375.403418c.082266.1539851.148711.3179874.199336.4920117.050626.1740243.087012.3549014.10916.5426367.022149.1877354.033223.3712492.033223.5505469 0 .1792978-.012656.3628116-.037969.5505469-.025312.1877354-.065917.3696671-.121816.5458008s-.127089.3427727-.213574.4999219c-.086485.1571493-.190898.2942573-.313242.4113282-.122345.1170709-.263672.2093551-.423985.2768555-.160313.0675003-.340663.10125-.541055.10125-.219376 0-.412909-.0332224-.580605-.099668-.167696-.0664457-.312714-.1566205-.435059-.2705274-.122344-.1139068-.22412-.2473234-.305332-.4002539-.081211-.1529304-.146601-.3169327-.196172-.4920117-.04957-.175079-.084374-.3554288-.104414-.5410547-.020039-.185626-.030058-.3691398-.030058-.5505469zm4.692305-.1328907c0 .1497664.0058.3090226.017402.4777735.011602.1687508.032168.3359172.061699.5015039.029532.1655868.069082.3243157.118653.4761915.04957.1518757.112323.2852924.188261.4002539s.166113.2067184.270528.2752734c.104414.0685551.226229.1028321.365449.1028321.122344 0 .230976-.0274216.325898-.0822657.094923-.054844.177715-.1291987.248379-.2230664.070665-.0938676.129727-.2051361.177188-.3338086s.085429-.2668352.113906-.4144922.049043-.3016398.061699-.4619531c.012657-.1603133.018985-.3195696.018985-.4777735 0-.175079-.006328-.3522647-.018985-.5315625-.012656-.1792978-.03375-.3522648-.063281-.5189063s-.068555-.323261-.11707-.4698633c-.048516-.1466023-.108633-.2742182-.180352-.3828516-.071719-.1086333-.156621-.1940622-.254707-.256289-.098086-.0622269-.21041-.0933399-.336973-.0933399-.124453 0-.235722.0274216-.333808.0822656-.098087.0548441-.184043.1297261-.257871.2246485-.073829.0949223-.136055.2072454-.18668.3369727-.050625.1297272-.092285.2689445-.124981.4176562-.032695.1487117-.056425.3042766-.071191.4666993s-.022148.3237882-.022148.4841015zm-.667618.1328907c0-.1814072.013711-.366503.041133-.555293s.069609-.3717765.126563-.5489649c.056953-.1771884.130253-.3438273.219902-.4999219.089649-.1560945.196699-.2926752.321152-.4097461.124454-.1170709.267363-.2093551.428731-.2768555.161368-.0675003.342245-.10125.542637-.10125.208829 0 .393925.0332224.555293.099668s.302167.1571479.422402.2721094.221484.2494328.30375.403418c.082266.1539851.148711.3179874.199336.4920117s.087012.3549014.10916.5426367c.022149.1877354.033223.3712492.033223.5505469 0 .1792978-.012656.3628116-.037969.5505469-.025313.1877354-.065918.3696671-.121816.5458008-.055899.1761337-.12709.3427727-.213575.4999219-.086484.1571493-.190897.2942573-.313242.4113282-.122344.1170709-.263671.2093551-.423984.2768555-.160314.0675003-.340663.10125-.541055.10125-.219376 0-.412909-.0332224-.580605-.099668-.167697-.0664457-.312715-.1566205-.435059-.2705274-.122344-.1139068-.224121-.2473234-.305332-.4002539-.081211-.1529304-.146601-.3169327-.196172-.4920117-.04957-.175079-.084375-.3554288-.104414-.5410547-.020039-.185626-.030059-.3691398-.030059-.5505469zm6.299649 1.5440625c0 .0885942-.001055.170859-.003164.2467969s-.009492.1466013-.022148.2119922l.499921-.0189844v.2657813h-1.632656v-.2151563h.050625c.109688-.0084375.198281-.0332224.265781-.0743554.067501-.0411331.120235-.0970309.158204-.1676953.037969-.0706645.063281-.1545113.075937-.251543.012656-.0970318.018984-.2046088.018984-.3227344v-.2183203h-1.971211v-.3195704l2.341407-3.0723048h.21832v3.0026955l.654961.0063281v.3828516h-.654961zm-2.132578-.9650391 1.544062.0189844v-2.0661329h-.012656z"/></g></svg>