<svg width="10" height="10" viewBox="0 0 10 10" fill="none" xmlns="http://www.w3.org/2000/svg">
<path d="M5.30089 1.11311C5.30089 1.01913 5.32438 0.948641 5.39487 0.878154C5.53584 0.737181 5.7473 0.737181 5.88828 0.854659L9.88252 4.61395C9.95301 4.68444 10 4.77842 10 4.8724C10 4.96638 9.95301 5.06036 9.90602 5.13085L5.91177 9.1251C5.7708 9.26607 5.55934 9.26607 5.41837 9.1251C5.27739 8.98412 5.27739 8.77266 5.41837 8.63169L9.13066 4.8724L5.41837 1.37156C5.34788 1.30107 5.30089 1.20709 5.30089 1.11311Z" fill="black"/>
<path d="M-7.64621e-06 5.00009C-7.63724e-06 4.79497 0.089736 4.61548 0.1923 4.61548L5.96153 4.61548C6.0641 4.61548 6.15384 4.79497 6.15384 5.00009C6.15384 5.20522 6.0641 5.38471 5.96153 5.38471L0.1923 5.38471C0.089736 5.38471 -7.65517e-06 5.20522 -7.64621e-06 5.00009Z" fill="black"/>
</svg>
