<svg width="25" height="23" viewBox="0 0 25 23" fill="none" xmlns="http://www.w3.org/2000/svg">
<path d="M24.8473 6.20212C24.6918 5.99345 24.4832 5.88911 24.2215 5.88911H7.55847L6.28237 1.78528C6.16785 1.41431 6.01242 1.09745 5.8161 0.834677C5.61977 0.571909 5.41118 0.386425 5.19032 0.278226C4.96945 0.170027 4.77722 0.0966062 4.61361 0.0579637C4.45001 0.0193212 4.28641 0 4.1228 0H0.760756C0.548071 0 0.368107 0.0695565 0.220865 0.208669C0.0736215 0.347782 0 0.525538 0 0.741935C0 0.865591 0.0327207 0.985383 0.098162 1.10131C0.163603 1.21724 0.257675 1.30612 0.380378 1.36794C0.50308 1.42977 0.629873 1.46069 0.760756 1.46069H4.1228C4.18825 1.46069 4.2496 1.46841 4.30686 1.48387C4.36412 1.49933 4.44183 1.56502 4.53999 1.68095C4.63815 1.79688 4.71996 1.97077 4.7854 2.20262L9.12907 17.2732C9.16179 17.3659 9.21496 17.4548 9.28858 17.5398C9.3622 17.6248 9.44809 17.6905 9.54626 17.7369C9.64442 17.7833 9.75076 17.8065 9.86528 17.8065H20.4668C20.6304 17.8065 20.7817 17.7601 20.9208 17.6673C21.0598 17.5746 21.1539 17.4587 21.203 17.3196L24.9577 6.88609C25.0395 6.63878 25.0027 6.41079 24.8473 6.20212ZM19.9269 16.3226H10.4788L7.97566 7.37298H23.0926L19.9269 16.3226ZM18.3808 19.2903C17.8409 19.2903 17.3788 19.4719 16.9943 19.8352C16.6098 20.1984 16.4176 20.6351 16.4176 21.1452C16.4176 21.6552 16.6098 22.0919 16.9943 22.4551C17.3788 22.8184 17.8409 23 18.3808 23C18.9207 23 19.3829 22.8184 19.7674 22.4551C20.1518 22.0919 20.3441 21.6552 20.3441 21.1452C20.3441 20.6351 20.1518 20.1984 19.7674 19.8352C19.3829 19.4719 18.9207 19.2903 18.3808 19.2903ZM11.3132 19.2903C10.9532 19.2903 10.6219 19.3753 10.3193 19.5454C10.0166 19.7154 9.77939 19.9395 9.60761 20.2177C9.43582 20.496 9.34993 20.8051 9.34993 21.1452C9.34993 21.6552 9.54216 22.0919 9.92663 22.4551C10.3111 22.8184 10.7733 23 11.3132 23C11.8531 23 12.3152 22.8184 12.6997 22.4551C13.0842 22.0919 13.2764 21.6552 13.2764 21.1452C13.2764 21.0215 13.2641 20.8979 13.2396 20.7742C13.2151 20.6505 13.1782 20.5346 13.1292 20.4264C13.0801 20.3182 13.0187 20.2139 12.9451 20.1134C12.8715 20.0129 12.7897 19.9202 12.6997 19.8352C12.6097 19.7502 12.5116 19.6729 12.4052 19.6033C12.2989 19.5338 12.1884 19.4758 12.0739 19.4294C11.9594 19.3831 11.8367 19.3483 11.7058 19.3251C11.5749 19.3019 11.4441 19.2903 11.3132 19.2903Z" fill="black"/>
</svg>
