<svg width="35" height="35" viewBox="0 0 35 35" fill="none" xmlns="http://www.w3.org/2000/svg">
<path d="M32.2373 0.678996C31.6204 0.335093 30.9418 0.116392 30.2405 0.0354007C29.5391 -0.0455911 28.8287 0.0127145 28.1499 0.206984C27.471 0.401253 26.8371 0.727676 26.2842 1.16758C25.7314 1.60749 25.2706 2.15226 24.9281 2.77072L14.9505 20.759L9.24017 15.0384C8.74439 14.5242 8.15136 14.114 7.49566 13.8318C6.83996 13.5497 6.13473 13.4011 5.42111 13.3949C4.7075 13.3887 3.9998 13.5249 3.33931 13.7956C2.67881 14.0664 2.07875 14.4662 1.57413 14.9717C1.06951 15.4772 0.670444 16.0784 0.400214 16.74C0.129984 17.4017 -0.00599817 18.1107 0.00020292 18.8256C0.00640401 19.5405 0.154664 20.247 0.436332 20.9039C0.717999 21.5608 1.12743 22.1549 1.64074 22.6515L12.3896 33.4198C13.4053 34.4401 14.7758 35 16.1893 35L16.9336 34.9462C17.7574 34.8307 18.5432 34.5253 19.2291 34.054C19.915 33.5826 20.4824 32.9582 20.8865 32.2299L34.3226 8.00138C34.6656 7.38343 34.8838 6.70383 34.9646 6.0014C35.0455 5.29897 34.9874 4.58747 34.7938 3.90752C34.6001 3.22756 34.2747 2.59248 33.8361 2.03853C33.3974 1.48457 32.8542 1.0226 32.2373 0.678996Z" fill="#4CD61C"/>
</svg>
