<svg width="12" height="12" viewBox="0 0 12 12" fill="none" xmlns="http://www.w3.org/2000/svg">
<path d="M11.0528 0.232799C10.8413 0.114889 10.6086 0.039906 10.3682 0.0121374C10.1277 -0.0156312 9.88413 0.00435926 9.65138 0.0709659C9.41864 0.137573 9.20128 0.249489 9.01174 0.400314C8.8222 0.55114 8.6642 0.737916 8.54677 0.949962L5.12588 7.11738L3.16806 5.15603C2.99808 4.97972 2.79475 4.83909 2.56994 4.74234C2.34513 4.6456 2.10333 4.59467 1.85867 4.59254C1.614 4.59041 1.37136 4.63712 1.14491 4.72994C0.918449 4.82275 0.712714 4.95982 0.539702 5.13315C0.36669 5.30647 0.229867 5.51258 0.137216 5.73944C0.0445659 5.96631 -0.00205651 6.20939 6.95726e-05 6.45449C0.00219566 6.6996 0.0530277 6.94183 0.149599 7.16705C0.246171 7.39226 0.386549 7.59596 0.562541 7.76624L4.24785 11.4582C4.59612 11.808 5.06599 12 5.55061 12L5.80582 11.9815C6.08825 11.942 6.35766 11.8372 6.59284 11.6756C6.82801 11.514 7.02253 11.3 7.16109 11.0502L11.7677 2.74333C11.8853 2.53146 11.9601 2.29846 11.9879 2.05762C12.0156 1.81679 11.9957 1.57285 11.9293 1.33972C11.8629 1.10659 11.7513 0.888849 11.6009 0.698923C11.4505 0.508997 11.2643 0.350607 11.0528 0.232799Z" fill="black"/>
</svg>
