<svg width="22" height="19" viewBox="0 0 22 19" fill="none" xmlns="http://www.w3.org/2000/svg">
<path d="M1.8547 14.7067H11.4065C11.55 14.7067 11.6876 14.6496 11.7891 14.5482C11.8906 14.4467 11.9476 14.3091 11.9476 14.1655C11.9476 14.022 11.8906 13.8844 11.7891 13.7829C11.6876 13.6814 11.55 13.6244 11.4065 13.6244H1.8547C1.64977 13.6244 1.45322 13.543 1.30831 13.3981C1.1634 13.2532 1.08199 13.0566 1.08199 12.8517V4.4103H17.2895V7.06826C17.2895 7.21178 17.3465 7.34941 17.448 7.45089C17.5495 7.55237 17.6871 7.60938 17.8306 7.60938C17.9741 7.60938 18.1118 7.55237 18.2132 7.45089C18.3147 7.34941 18.3717 7.21178 18.3717 7.06826V2.1506C18.3712 1.65881 18.1755 1.18733 17.8278 0.839588C17.48 0.491842 17.0086 0.296227 16.5168 0.295654H1.8547C1.36292 0.296227 0.891435 0.491842 0.54369 0.839588C0.195944 1.18733 0.000328704 1.65881 -0.000244141 2.1506V12.8517C0.000328704 13.3435 0.195944 13.815 0.54369 14.1627C0.891435 14.5105 1.36292 14.7061 1.8547 14.7067ZM1.8547 1.37789H16.5168C16.7217 1.37789 16.9183 1.4593 17.0632 1.60421C17.2081 1.74912 17.2895 1.94566 17.2895 2.1506V3.3259H1.08199V2.1506C1.08199 1.94566 1.1634 1.74912 1.30831 1.60421C1.45322 1.4593 1.64977 1.37789 1.8547 1.37789Z" fill="black"/>
<path d="M4.67067 11.0184H3.03001C2.88649 11.0184 2.74886 11.0754 2.64738 11.1769C2.5459 11.2784 2.48889 11.416 2.48889 11.5595C2.48889 11.703 2.5459 11.8407 2.64738 11.9421C2.74886 12.0436 2.88649 12.1006 3.03001 12.1006H4.67284C4.81635 12.1006 4.95398 12.0436 5.05546 11.9421C5.15694 11.8407 5.21395 11.703 5.21395 11.5595C5.21395 11.416 5.15694 11.2784 5.05546 11.1769C4.95398 11.0754 4.81635 11.0184 4.67284 11.0184H4.67067Z" fill="black"/>
<path d="M7.02342 12.1006H8.65759C8.8011 12.1006 8.93873 12.0436 9.04021 11.9421C9.14169 11.8407 9.1987 11.703 9.1987 11.5595C9.1987 11.416 9.14169 11.2784 9.04021 11.1769C8.93873 11.0754 8.8011 11.0184 8.65759 11.0184H7.02342C6.8799 11.0184 6.74227 11.0754 6.64079 11.1769C6.53931 11.2784 6.4823 11.416 6.4823 11.5595C6.4823 11.703 6.53931 11.8407 6.64079 11.9421C6.74227 12.0436 6.8799 12.1006 7.02342 12.1006Z" fill="black"/>
<path d="M12.5536 11.0184H10.9172C10.7737 11.0184 10.6361 11.0754 10.5346 11.1769C10.4331 11.2784 10.3761 11.416 10.3761 11.5595C10.3761 11.703 10.4331 11.8407 10.5346 11.9421C10.6361 12.0436 10.7737 12.1006 10.9172 12.1006H12.5536C12.6971 12.1006 12.8347 12.0436 12.9362 11.9421C13.0377 11.8407 13.0947 11.703 13.0947 11.5595C13.0947 11.416 13.0377 11.2784 12.9362 11.1769C12.8347 11.0754 12.6971 11.0184 12.5536 11.0184Z" fill="black"/>
<path d="M6.65749 7.73492V7.28255C6.65749 6.88071 6.49786 6.49534 6.21372 6.2112C5.92958 5.92705 5.5442 5.76743 5.14237 5.76743H3.99736C3.59553 5.76743 3.21015 5.92705 2.92601 6.2112C2.64187 6.49534 2.48224 6.88071 2.48224 7.28255V7.73492C2.48224 8.13676 2.64187 8.52214 2.92601 8.80628C3.21015 9.09042 3.59553 9.25005 3.99736 9.25005H5.14669C5.54778 9.2489 5.93205 9.08877 6.21525 8.80475C6.49846 8.52073 6.65749 8.13601 6.65749 7.73492ZM5.57526 7.73492C5.57526 7.84973 5.52965 7.95984 5.44847 8.04103C5.36728 8.12221 5.25718 8.16782 5.14237 8.16782H3.99736C3.88255 8.16782 3.77245 8.12221 3.69126 8.04103C3.61008 7.95984 3.56447 7.84973 3.56447 7.73492V7.28255C3.56447 7.16774 3.61008 7.05763 3.69126 6.97645C3.77245 6.89527 3.88255 6.84966 3.99736 6.84966H5.14669C5.2615 6.84966 5.37161 6.89527 5.4528 6.97645C5.53398 7.05763 5.57959 7.16774 5.57959 7.28255L5.57526 7.73492Z" fill="black"/>
<path d="M20.3456 12.8366H20.3001C20.2092 12.8192 20.1205 12.8084 20.0296 12.7911V11.6894C20.0296 10.9377 19.7316 10.2167 19.2009 9.68442C18.6702 9.1521 17.9501 8.8519 17.1984 8.84961H17.114C16.3627 8.85247 15.6432 9.15293 15.113 9.68518C14.5828 10.2174 14.2851 10.9381 14.2851 11.6894V12.7868C14.1942 12.8019 14.1054 12.8149 14.0145 12.8322H13.9691C13.7264 12.8767 13.5069 13.0048 13.3488 13.1941C13.1906 13.3835 13.1038 13.6223 13.1033 13.869V17.3884C13.1038 17.6351 13.1906 17.8739 13.3488 18.0633C13.5069 18.2527 13.7264 18.3807 13.9691 18.4252L14.2807 18.4836C16.1859 18.8438 18.1417 18.8438 20.0469 18.4836L20.3456 18.4252C20.5882 18.3807 20.8077 18.2527 20.9658 18.0633C21.124 17.8739 21.2108 17.6351 21.2114 17.3884V13.8733C21.2108 13.6266 21.124 13.3878 20.9658 13.1985C20.8077 13.0091 20.5882 12.881 20.3456 12.8366ZM15.3673 11.6894C15.3679 11.224 15.553 10.7779 15.8821 10.4488C16.2111 10.1197 16.6573 9.93458 17.1227 9.93401H17.2071C17.671 9.93686 18.1149 10.123 18.4421 10.4518C18.7693 10.7806 18.9533 11.2255 18.9538 11.6894V12.6374C17.7588 12.5109 16.5537 12.5109 15.3586 12.6374L15.3673 11.6894ZM20.1291 17.3646L19.8391 17.4187C18.0661 17.7525 16.2464 17.7525 14.4734 17.4187L14.1833 17.3646V13.9015H14.2071C16.1561 13.5343 18.1564 13.5343 20.1053 13.9015H20.1291V17.3646Z" fill="black"/>
<path d="M17.5319 15.5962C17.6298 15.5135 17.6984 15.4014 17.7274 15.2765C17.7565 15.1517 17.7444 15.0208 17.6931 14.9033C17.6418 14.7858 17.5539 14.6881 17.4426 14.6246C17.3313 14.561 17.2024 14.5352 17.0752 14.5508C16.9459 14.567 16.8253 14.6247 16.7317 14.7152C16.638 14.8058 16.5762 14.9243 16.5557 15.0529C16.5398 15.1537 16.5502 15.2568 16.5859 15.3524C16.6215 15.4479 16.6812 15.5326 16.7591 15.5984L16.5427 16.2044L16.4604 16.4339C16.447 16.4721 16.449 16.514 16.466 16.5508C16.483 16.5875 16.5136 16.6163 16.5514 16.6308C16.932 16.7797 17.3547 16.7797 17.7353 16.6308C17.7731 16.6163 17.8037 16.5875 17.8207 16.5508C17.8376 16.514 17.8396 16.4721 17.8262 16.4339L17.5319 15.5962Z" fill="black"/>
</svg>
