<svg width="10" height="5" viewBox="0 0 10 5" fill="none" xmlns="http://www.w3.org/2000/svg">
<path d="M4.77439 4.80344C4.67712 4.79739 4.58467 4.75897 4.51176 4.69429L0.145845 0.764979C0.102868 0.726514 0.0679045 0.679942 0.0429583 0.627938C0.018013 0.575935 0.00357437 0.519525 0.000472069 0.461932C-0.00263023 0.404338 0.00566483 0.346696 0.0248795 0.292314C0.044095 0.237932 0.0738544 0.187874 0.112451 0.145014C0.151048 0.102154 0.197723 0.0673353 0.249803 0.0425479C0.301882 0.0177605 0.358341 0.00349171 0.415944 0.000564866C0.473547 -0.00236197 0.53116 0.00610585 0.585484 0.0254869C0.639808 0.0448679 0.689773 0.074783 0.732514 0.11351L4.8051 3.78018L8.87767 0.11351C8.92042 0.0747826 8.97038 0.0448682 9.0247 0.0254869C9.07903 0.00610556 9.13664 -0.00236183 9.19424 0.000564866C9.25185 0.00349156 9.30831 0.0177538 9.36039 0.0425412C9.41247 0.0673286 9.45914 0.102154 9.49774 0.145014C9.53634 0.187874 9.56609 0.237932 9.58531 0.292314C9.60453 0.346697 9.61282 0.404331 9.60972 0.461925C9.60661 0.519519 9.59218 0.575935 9.56723 0.627938C9.54228 0.679942 9.50732 0.726514 9.46434 0.764979L5.09843 4.69429C5.05454 4.73335 5.00322 4.76316 4.94754 4.78191C4.89186 4.80067 4.83297 4.80799 4.77439 4.80344Z" fill="black"/>
</svg>
