<svg width="88" height="15" viewBox="0 0 88 15" fill="none" xmlns="http://www.w3.org/2000/svg">
<g clip-path="url(#clip0)">
<path d="M33.7805 3.81692C34.1186 3.86951 34.4607 3.88935 34.8023 3.87618C34.9437 3.87257 35.0847 3.8601 35.2246 3.83887C35.3009 3.82828 35.3764 3.81214 35.4505 3.79058C35.5159 3.76863 35.5856 3.75108 35.6468 3.72913V3.84985C35.4059 3.99062 35.2244 4.22004 35.138 4.49295C35.0306 4.79781 34.9659 5.11715 34.9459 5.44115C34.9459 5.62772 34.929 5.81648 34.9206 6.00964C34.9121 6.20279 34.9079 6.47935 34.9079 6.83273C34.8994 7.2483 34.8952 8.13138 34.8952 9.48198C34.8952 9.73805 34.891 10.2151 34.8826 10.9131C34.8826 11.6813 34.8699 12.2673 34.8699 12.669C34.8699 13.3033 34.9206 14.4864 34.9206 14.55C34.9206 14.7168 34.8826 14.8002 34.8065 14.8002C34.7559 14.8002 34.6271 14.6729 34.4244 14.4161L27.3875 6.24888H27.3094C27.2925 6.64616 27.2862 7.12684 27.2862 7.65362C27.2862 7.87311 27.2862 8.19576 27.2989 8.62158V9.48198C27.2989 10.717 27.3326 12.042 27.4002 13.457C27.4112 13.7247 27.4836 13.9858 27.6113 14.2186C27.7422 14.4371 27.9356 14.6075 28.1645 14.7059V14.8024C27.6113 14.7585 27.1321 14.7498 26.7246 14.7498C26.5789 14.7498 26.4353 14.7498 26.2897 14.7629C26.2115 14.7629 26.1334 14.7629 26.0553 14.7805L25.8442 14.8024V14.7059C26.0544 14.5913 26.2342 14.4247 26.3678 14.2208C26.5035 14.0135 26.577 13.7691 26.5789 13.5184C26.5958 12.6273 26.605 11.2891 26.6064 9.50393C26.6064 9.28298 26.6064 8.83229 26.6064 8.15187C26.6064 7.57021 26.6211 7.09173 26.6211 6.72079C26.6211 6.53861 26.6211 6.35424 26.6211 6.16986C26.6211 5.98549 26.6211 5.84502 26.6211 5.6804C26.6211 5.58602 26.6211 5.49164 26.6211 5.39726C26.6211 5.30288 26.6211 5.21069 26.6021 5.1185C26.579 4.94708 26.5365 4.7791 26.4755 4.61806C26.4565 4.56978 26.4353 4.52149 26.4142 4.47539C26.2804 4.21585 26.0821 3.99834 25.84 3.84546V3.73132L26.5156 3.79717C26.7035 3.81473 26.9019 3.84107 27.0898 3.84985L34.0993 12.2629H34.2027C34.2027 11.6045 34.2154 10.8121 34.2154 9.49515C34.2154 8.81473 34.2069 8.12114 34.1901 7.41438C34.1732 6.70762 34.1478 6.025 34.114 5.36214C34.1081 5.0639 34.0605 4.76814 33.9726 4.48417C33.8653 4.21595 33.678 3.99055 33.4384 3.84107V3.73132C33.4939 3.75186 33.5512 3.76657 33.6095 3.77522C33.6643 3.78839 33.7129 3.80375 33.7805 3.81692Z" fill="white"/>
<path d="M45.9329 13.3583C46.0326 13.6554 46.1896 13.9283 46.3944 14.16C46.5991 14.3918 46.8473 14.5776 47.1236 14.706V14.8048C46.6599 14.7303 46.191 14.6951 45.7218 14.6994C45.2188 14.6952 44.7163 14.7304 44.2185 14.8048V14.706C44.3188 14.6191 44.4081 14.5196 44.4846 14.4097C44.5903 14.2546 44.6404 14.0658 44.626 13.8763C44.6249 13.7876 44.6142 13.6992 44.5943 13.6129C44.5768 13.5272 44.5535 13.4429 44.5247 13.3605L43.5303 10.5357C42.8758 10.4742 42.3163 10.4435 41.8412 10.4435C41.2496 10.4411 40.6583 10.4719 40.0699 10.5357L38.9361 13.6085C38.8524 13.8061 38.8011 14.0168 38.7841 14.2319C38.7832 14.325 38.8042 14.4169 38.8455 14.4996C38.8867 14.5823 38.9468 14.6531 39.0206 14.706V14.8026C38.6777 14.7548 38.3319 14.7335 37.986 14.7389C37.6275 14.7336 37.2691 14.7549 36.9135 14.8026V14.706C37.6229 14.5106 38.0304 14.0475 38.3196 13.3342L41.4021 5.58395C41.4254 5.51323 41.4383 5.43921 41.4401 5.36446C41.4305 5.07835 41.3344 4.80266 41.1656 4.57648C40.9793 4.29356 40.7437 4.04938 40.471 3.85655V3.73145C40.7049 3.78304 40.9419 3.81751 41.1804 3.83461C41.4718 3.84778 41.7378 3.85436 41.9764 3.85436H42.3205L42.9053 5.40397L45.9329 13.3583ZM41.8982 6.07122L40.3507 9.89255C40.8088 9.91889 41.3387 9.93425 41.8286 9.93425C42.3184 9.93425 42.8293 9.91889 43.3065 9.89255L41.8982 6.07122Z" fill="white"/>
<path d="M56.352 3.98368C56.2162 4.24147 56.1038 4.51189 56.0163 4.79141C55.9741 4.92749 55.9129 5.20624 55.8728 5.34452C55.8517 5.41037 55.8137 5.56401 55.7208 5.52012C55.6279 5.47622 55.6638 5.43232 55.6553 5.25673C55.6522 5.15399 55.6394 5.05182 55.6173 4.95164C55.6022 4.88599 55.5734 4.82461 55.5329 4.77188C55.4924 4.71914 55.4412 4.67634 55.383 4.64654C55.2741 4.57416 55.1489 4.53255 55.0198 4.52582C54.9206 4.52582 54.8087 4.52582 54.5976 4.52582C54.0043 4.52582 53.259 4.52582 52.6045 4.52582C52.6045 4.52582 52.6045 4.7958 52.6045 5.26331C52.6045 6.20493 52.5897 7.8972 52.6045 9.52143C52.6235 11.2532 52.6446 12.9192 52.6742 13.5096C52.6953 13.7674 52.7796 14.0153 52.9191 14.2295C53.0453 14.4514 53.2426 14.62 53.4765 14.7058V14.8024C52.9254 14.7585 52.4441 14.7651 52.0366 14.7651C51.6291 14.7651 51.1921 14.7651 50.7234 14.8024V14.7058C50.9377 14.6102 51.12 14.4505 51.247 14.2471C51.3936 14.0348 51.4793 13.7836 51.494 13.5227C51.5109 12.6316 51.494 11.3147 51.494 9.53241C51.494 8.59518 51.494 5.89325 51.4665 5.23917L51.4539 4.52363C50.9113 4.52363 50.4468 4.52363 50.0583 4.54338C49.6704 4.56555 49.2849 4.62061 48.9056 4.708C48.7467 4.74333 48.5928 4.79938 48.4474 4.87481C48.2831 4.95368 48.1292 5.05399 47.9893 5.17332C47.9449 5.20844 47.89 5.25673 47.8225 5.31818C47.7366 5.42643 47.6198 5.50333 47.4889 5.53768C47.4298 5.53768 47.4129 5.50695 47.4129 5.45427C47.4694 5.28008 47.5591 5.11956 47.6768 4.98236C47.8229 4.75515 47.9493 4.51497 48.0547 4.26463C48.1464 4.07627 48.2227 3.88024 48.2827 3.67859H48.4348C48.5614 3.83004 48.8127 3.84321 49.1864 3.85199C49.8915 3.85199 50.9451 3.85199 52.3533 3.85199C52.8642 3.85199 53.3773 3.86735 53.8882 3.85199C54.4646 3.83443 55.0409 3.85199 55.6152 3.85199C55.8825 3.84653 56.1463 3.78766 56.3922 3.67859H56.5632C56.4875 3.77618 56.417 3.87803 56.352 3.98368Z" fill="white"/>
<path d="M65.0631 4.1835C65.7037 4.44669 66.2804 4.85365 66.7522 5.37533C67.2132 5.88954 67.5688 6.49594 67.7972 7.1576C68.0399 7.85632 68.1615 8.59428 68.1562 9.33714C68.1601 10.1073 68.0165 10.8706 67.7339 11.5825C67.4756 12.2578 67.0893 12.8721 66.598 13.3889C66.1078 13.8934 65.5247 14.2898 64.8837 14.5544C64.2232 14.8296 63.5177 14.969 62.8062 14.9649C62.0964 14.9651 61.394 14.8158 60.7414 14.5259C60.0974 14.2453 59.5128 13.8358 59.0207 13.3209C58.5294 12.8047 58.1381 12.1951 57.8679 11.5255C57.5947 10.8408 57.4541 10.1069 57.4541 9.36568C57.4541 8.62446 57.5947 7.89053 57.8679 7.20589C58.139 6.53478 58.5302 5.92328 59.0207 5.40387C59.5102 4.8871 60.0927 4.47543 60.735 4.19228C61.3895 3.90109 62.0943 3.75172 62.8062 3.7533C63.5782 3.7432 64.3448 3.88932 65.0631 4.1835ZM61.2016 4.75198C60.7153 4.96825 60.2785 5.28916 59.9201 5.6936C59.5485 6.11702 59.2646 6.61534 59.0861 7.1576C58.8857 7.75577 58.7864 8.3855 58.7927 9.01888C58.7895 9.68985 58.8907 10.3569 59.0925 10.9943C59.2823 11.6063 59.5676 12.1817 59.937 12.6975C60.2776 13.1817 60.7148 13.5837 61.2185 13.8762C61.7052 14.1574 62.2536 14.3033 62.8104 14.2998C63.3684 14.3052 63.9222 14.2002 64.4424 13.9903C64.9369 13.7864 65.3859 13.4794 65.762 13.0882C66.1465 12.6856 66.4438 12.2022 66.6339 11.6703C66.8413 11.0801 66.9408 10.4548 66.9274 9.82661C66.9372 9.06358 66.8318 8.30367 66.6149 7.57463C66.431 6.95176 66.1375 6.36978 65.7493 5.85821C65.3966 5.40098 64.9472 5.03445 64.4361 4.7871C63.9223 4.54205 63.363 4.41765 62.7977 4.42274C62.2497 4.41853 61.7066 4.53056 61.2016 4.75198Z" fill="white"/>
<path d="M8.97709 12.0719C8.97709 12.0719 8.77863 12.41 8.72796 12.4802C7.761 13.8718 5.77218 14.7783 4.11483 14.1154C3.62217 13.9094 3.17738 13.5966 2.81006 13.1979L3.39066 12.4451C4.37662 11.194 5.32036 9.89241 6.38656 8.70716C7.00094 8.02015 9.31701 5.6716 9.31701 5.6716C9.31701 5.6716 9.20933 5.5421 9.19877 5.52893C8.79529 5.07494 8.31421 4.70281 7.78 4.43148L7.53087 4.31954C5.16835 3.32524 2.36669 4.11321 0.920468 6.31471C0.300908 7.27706 -0.018504 8.41444 0.00567229 9.57217C0.0298486 10.7299 0.39644 11.8518 1.05559 12.7853C1.52754 13.4343 2.13005 13.9683 2.82106 14.3502C3.51207 14.7321 4.27492 14.9525 5.05636 14.9962C5.83781 15.0399 6.619 14.9058 7.34542 14.6031C8.07183 14.3005 8.72595 13.8367 9.26211 13.244C9.43511 13.0382 9.59721 12.8228 9.7477 12.5987L8.97709 12.0719ZM1.33006 9.56098C1.20549 7.66677 1.94021 5.67818 3.70524 4.89021C4.37462 4.5871 5.11309 4.48807 5.83454 4.60465C6.556 4.72124 7.2307 5.04864 7.78 5.54868C7.6301 5.80549 7.43164 6.06888 7.25218 6.33007C6.30476 7.69706 5.26852 8.99508 4.15072 10.2151C3.50678 10.9196 2.81006 11.5891 2.12178 12.2607C1.66363 11.4352 1.39284 10.5118 1.33006 9.56098Z" fill="white"/>
<path d="M22.5611 12.917L18.4357 2.16198L17.6503 0.0877963H17.1879C16.867 0.0877963 16.5102 0.0790167 16.1175 0.0614574C15.7227 0.0438982 15.4292 0.024144 15.1674 0V0.122915C15.5316 0.371728 15.848 0.688799 16.1006 1.05795C16.3262 1.36214 16.4547 1.73204 16.468 2.11589C16.4661 2.21753 16.449 2.31823 16.4173 2.4144L12.275 12.8292C11.8865 13.8016 11.2616 14.4315 10.3939 14.7147V14.8068C10.8674 14.7382 11.3451 14.7044 11.8232 14.7059C12.2871 14.7012 12.7507 14.7321 13.2103 14.7981V14.7059C13.1168 14.6188 13.0413 14.5127 12.9887 14.3942C12.936 14.2757 12.9073 14.1472 12.9042 14.0167C12.9282 13.7275 12.9997 13.4447 13.1153 13.1804L14.6396 9.0518C15.43 8.96514 16.2243 8.92337 17.019 8.92669C17.6454 8.92669 18.3984 8.96839 19.2781 9.0518V9.06277L19.7489 9.11326L21.0389 12.6119C21.0389 12.6119 21.2838 13.2199 21.231 13.4504C21.0473 14.2164 20.756 14.3701 20.281 14.7059V14.8025C20.9229 14.7062 21.5706 14.6578 22.2191 14.6576C22.85 14.6575 23.4799 14.7111 24.1024 14.8178V14.7059C23.4183 14.4132 22.9046 13.8169 22.5611 12.917ZM18.5624 8.25066C18.0451 8.2748 17.5215 8.25066 16.981 8.25066C16.3308 8.25066 15.6636 8.23529 15.0471 8.20018L17.0507 3.09482L17.3125 2.4144L19.4428 8.2309L18.5624 8.25066Z" fill="white"/>
<path d="M81.6874 14.2099C81.4896 13.9791 81.3592 13.6943 81.3116 13.389L81.0878 11.7999L80.6297 8.52951L80.2497 5.84295C80.1779 5.33592 80.142 4.90792 80.3827 4.43821C80.4975 4.18915 80.6843 3.98352 80.9168 3.84997V3.73145C80.5032 3.80034 80.0857 3.84066 79.6669 3.85217L79.0441 5.3886L76.0672 12.6318L72.1761 3.85217C71.7574 3.84142 71.3398 3.80109 70.9263 3.73145V3.85217C71.452 4.2231 71.7286 4.64672 71.7159 5.21081L70.6961 13.0379C70.6138 13.6722 70.3942 14.3921 69.801 14.7104V14.807H69.8685C69.9298 14.807 69.9804 14.796 70.0374 14.7938C70.1747 14.7938 70.3119 14.774 70.4491 14.7674H70.6814C71.091 14.7674 71.5512 14.7674 72.1191 14.8135V14.706C71.9004 14.6279 71.7097 14.4824 71.5723 14.289C71.4571 14.0906 71.3992 13.8621 71.4055 13.6305C71.4055 13.5976 71.4055 13.5756 71.4055 13.5471C71.4055 13.4681 71.4055 13.3978 71.4161 13.3517L72.1994 7.13355C72.1994 7.13355 74.4225 11.8526 74.507 12.0304C74.7287 12.5067 74.9482 12.9874 75.1784 13.4571C75.3895 13.8961 75.5774 14.2516 75.8118 14.6884C75.8329 14.7279 75.8772 14.807 75.93 14.807C75.9828 14.807 76.0271 14.7279 76.0546 14.6599C76.082 14.5919 79.1518 7.06112 79.1518 7.06112C79.1518 7.06112 80.047 13.8807 80.0596 13.9795C80.0738 14.1025 80.0478 14.227 79.9857 14.3329C79.9251 14.42 79.8492 14.4944 79.762 14.5523L79.5086 14.7126V14.8113C80.0083 14.7434 80.5122 14.7148 81.016 14.7257C81.4841 14.7149 81.9522 14.7435 82.4158 14.8113V14.706C82.1355 14.6097 81.8844 14.4386 81.6874 14.2099Z" fill="white"/>
<path d="M85.2955 14.8113V14.706C85.9754 14.3372 86.0493 13.7183 86.0577 12.9962C86.0661 12.274 86.0725 11.5563 86.0746 10.8364C86.0746 9.00361 86.1232 7.16209 86.0303 5.33153C85.9965 4.70818 85.8022 4.1814 85.2955 3.82583V3.73145C86.0293 3.81882 86.7691 3.83719 87.506 3.78632C87.7172 3.78632 87.8861 3.74022 87.9958 3.73145V3.82363C87.4786 4.0958 87.2928 4.77403 87.2527 5.33373C87.1281 8.07956 87.1091 10.8012 87.24 13.5493C87.2712 13.7901 87.3559 14.02 87.4875 14.2208C87.619 14.4216 87.7938 14.5877 87.998 14.706V14.8135C87.0988 14.7335 86.1948 14.7328 85.2955 14.8113Z" fill="white"/>
</g>
<defs>
<clipPath id="clip0">
<rect width="88" height="15" fill="white"/>
</clipPath>
</defs>
</svg>
