<svg width="49" height="49" viewBox="0 0 49 49" fill="none" xmlns="http://www.w3.org/2000/svg">
<circle cx="24.5" cy="24.5" r="24.5" fill="#F7C945"/>
<path d="M30.1224 23.5889H26.319V35.1478H20.6746V23.5889H18V19.5092H20.6746V16.8634C20.6141 16.2123 20.7206 15.5579 20.9866 14.9453C21.2527 14.3328 21.6719 13.7767 22.2153 13.3156C22.7587 12.8545 23.4133 12.4994 24.1339 12.2749C24.8544 12.0503 25.6237 11.9617 26.3884 12.0151H30.5566V15.9765H27.5173C27.3475 15.9709 27.1784 15.9969 27.0217 16.0529C26.865 16.1088 26.7246 16.1933 26.6104 16.3004C26.4962 16.4075 26.4109 16.5345 26.3606 16.6726C26.3102 16.8108 26.296 16.9566 26.319 17.0999V19.4944H30.6261L30.1224 23.5741" fill="#575757"/>
</svg>
