<svg width="8" height="14" viewBox="0 0 8 14" fill="none" xmlns="http://www.w3.org/2000/svg">
<path d="M7.55185 7.38465H5.38294V13.9761H2.16423V7.38465H0.639061V5.05824H2.16423V3.54945C2.12977 3.17819 2.19049 2.805 2.34219 2.45568C2.49389 2.10637 2.73295 1.78928 3.04282 1.52634C3.3527 1.26341 3.726 1.06091 4.13689 0.932864C4.54778 0.804817 4.98645 0.754276 5.42256 0.784738H7.79945V3.04371H6.0663C5.96948 3.04049 5.873 3.05536 5.78366 3.08727C5.69431 3.11918 5.61426 3.16735 5.54913 3.22841C5.484 3.28947 5.43537 3.36192 5.40666 3.44068C5.37795 3.51945 5.36985 3.6026 5.38294 3.68431V5.04981H7.83906L7.55185 7.37622" fill="white"/>
</svg>
