<svg width="12" height="11" viewBox="0 0 12 11" fill="none" xmlns="http://www.w3.org/2000/svg">
<path d="M1.51841 2.18652e-10H10.454C10.8624 -6.51193e-06 11.2543 0.145451 11.5439 0.404602C11.8336 0.663754 11.9976 1.01554 12 1.38313V9.40859C12 9.77762 11.8371 10.1315 11.5472 10.3925C11.2573 10.6534 10.864 10.8 10.454 10.8H1.52761C1.12078 10.7956 0.732256 10.6471 0.446291 10.3867C0.160327 10.1262 -2.88278e-05 9.77476 3.88725e-09 9.40859V1.38313C-7.27499e-06 1.01773 0.16064 0.667176 0.44686 0.408025C0.733081 0.148875 1.12162 0.00218801 1.52761 2.18652e-10H1.51841ZM8.74233 1.19264C8.67069 1.19152 8.59953 1.20339 8.53309 1.22755C8.46666 1.25171 8.4063 1.28766 8.35563 1.33326C8.30497 1.37886 8.26502 1.43318 8.23818 1.49297C8.21134 1.55276 8.19814 1.61681 8.19939 1.68129V2.8408C8.19814 2.90528 8.21134 2.96932 8.23818 3.02911C8.26502 3.08891 8.30497 3.14322 8.35563 3.18882C8.4063 3.23443 8.46666 3.27038 8.53309 3.29454C8.59953 3.3187 8.67069 3.33057 8.74233 3.32945H10.0859C10.2299 3.32945 10.368 3.27797 10.4698 3.18633C10.5716 3.09469 10.6288 2.9704 10.6288 2.8408V1.68129C10.6288 1.55169 10.5716 1.4274 10.4698 1.33576C10.368 1.24412 10.2299 1.19264 10.0859 1.19264H8.74233ZM10.638 4.5635H9.53374C9.6409 4.86335 9.69676 5.17613 9.69939 5.4911C9.69939 6.38292 9.30575 7.2382 8.60508 7.86881C7.90441 8.49941 6.95409 8.85368 5.96319 8.85368C4.97229 8.85368 4.02197 8.49941 3.3213 7.86881C2.62063 7.2382 2.22699 6.38292 2.22699 5.4911C2.22513 5.17581 2.2811 4.86239 2.39264 4.5635H1.31595V9.127C1.31595 9.24122 1.36637 9.35076 1.45611 9.43153C1.54585 9.51229 1.66756 9.55767 1.79448 9.55767H10.1503C10.2772 9.55767 10.3989 9.51229 10.4887 9.43153C10.5784 9.35076 10.6288 9.24122 10.6288 9.127L10.638 4.5635ZM6.03681 3.27147C5.578 3.28612 5.13413 3.42204 4.76061 3.66228C4.38708 3.90251 4.10044 4.23643 3.93644 4.62236C3.77245 5.00829 3.73836 5.42914 3.83843 5.83239C3.93851 6.23565 4.16831 6.60345 4.49917 6.8899C4.83003 7.17636 5.2473 7.36878 5.6989 7.44315C6.15051 7.51753 6.61644 7.47056 7.03857 7.30812C7.46071 7.14568 7.82035 6.87496 8.07261 6.52973C8.32487 6.1845 8.45858 5.78006 8.45706 5.36687C8.45228 5.08592 8.38574 4.80859 8.26129 4.5509C8.13683 4.2932 7.95692 4.06024 7.73192 3.86544C7.50692 3.67064 7.24128 3.51786 6.95035 3.41592C6.65941 3.31397 6.34893 3.26488 6.03681 3.27147Z" fill="white"/>
</svg>
