<svg width="14" height="12" viewBox="0 0 14 12" fill="none" xmlns="http://www.w3.org/2000/svg">
<path fill-rule="evenodd" clip-rule="evenodd" d="M7.7044 4.82226L7.79822 4.729C8.09229 4.28596 8.51521 3.94252 9.01062 3.74444C9.50603 3.54636 10.0504 3.50304 10.5712 3.62027C11.1974 3.7063 11.775 4.00322 12.2076 4.46147C12.6402 4.91971 12.9015 5.51157 12.9481 6.13824C13.0029 6.48097 13.0308 6.82741 13.0315 7.17444V11.3814C13.0315 11.5369 13.0315 11.5887 12.8334 11.5783H10.6129C10.4565 11.5783 10.4149 11.5783 10.4149 11.3814C10.4149 10.0758 10.4149 8.77019 10.4149 7.46458C10.4226 7.16754 10.3875 6.87094 10.3106 6.58381C10.2573 6.37227 10.1498 6.17803 9.99866 6.01997C9.8475 5.86192 9.65777 5.74542 9.44792 5.6818C9.23806 5.61818 9.01522 5.6096 8.80104 5.6569C8.58687 5.7042 8.38865 5.80576 8.22564 5.95172C8.03714 6.10712 7.888 6.30435 7.79022 6.52753C7.69244 6.7507 7.64877 6.99359 7.66271 7.23661C7.66271 8.4697 7.66271 9.70278 7.66271 10.9255C7.66271 11.0913 7.66271 11.2571 7.66271 11.4125C7.66271 11.5679 7.6627 11.5783 7.48548 11.5783H5.23373C5.09821 11.5783 5.04608 11.5783 5.04608 11.4022C5.04608 10.2934 5.04608 9.18468 5.04608 8.07594C5.04608 6.70815 5.04608 5.34036 5.04608 3.93113C5.04608 3.78606 5.04608 3.73425 5.23373 3.74461H7.49591C7.63143 3.74461 7.66271 3.74461 7.66271 3.9104C7.70441 4.20054 7.7044 4.49068 7.7044 4.82226Z" fill="white"/>
<path fill-rule="evenodd" clip-rule="evenodd" d="M3.67043 7.65137V11.3506C3.67043 11.4957 3.67044 11.5579 3.47237 11.5475H1.24146C1.10594 11.5475 1.05382 11.5475 1.05382 11.3713C1.05382 8.88445 1.05382 6.40793 1.05382 3.92104C1.05382 3.7967 1.05381 3.75525 1.22061 3.75525H3.49321C3.64958 3.75525 3.67043 3.80706 3.67043 3.94177V7.65137Z" fill="white"/>
<path fill-rule="evenodd" clip-rule="evenodd" d="M2.38752 0.0039172C2.60508 -0.0126096 2.82343 0.0233197 3.02402 0.108653C3.22461 0.193985 3.40151 0.326199 3.53967 0.494052C3.67784 0.661906 3.77319 0.860437 3.81762 1.07277C3.86205 1.2851 3.85424 1.50496 3.79486 1.71365C3.68163 2.06321 3.43835 2.35657 3.11475 2.53376C2.79116 2.71096 2.41169 2.7586 2.05393 2.66696C1.85094 2.63874 1.65722 2.56442 1.4878 2.44976C1.31838 2.33511 1.17781 2.1832 1.07699 2.00582C0.976169 1.82845 0.917816 1.63037 0.90645 1.42696C0.895083 1.22354 0.931014 1.02026 1.01145 0.832878C1.12559 0.569608 1.31948 0.34827 1.56613 0.199685C1.81277 0.0511014 2.0999 -0.0173314 2.38752 0.0039172Z" fill="white"/>
</svg>
