<svg width="26" height="35" viewBox="0 0 26 35" fill="none" xmlns="http://www.w3.org/2000/svg">
<path d="M12.9716 6.51045C9.54522 6.51045 6.68989 9.30867 6.68989 12.7922C6.68989 16.2186 9.48811 19.0739 12.9716 19.0739C16.4551 19.0739 19.2534 16.2757 19.2534 12.7922C19.2534 9.30867 16.398 6.51045 12.9716 6.51045ZM12.9716 17.3036C10.4589 17.3036 8.40309 15.2478 8.40309 12.7351C8.40309 10.2224 10.4589 8.16654 12.9716 8.16654C15.4843 8.16654 17.5402 10.2224 17.5402 12.7351C17.5402 15.2478 15.4843 17.3036 12.9716 17.3036Z" fill="white"/>
<path d="M12.972 0C5.89082 0 0.123047 5.76777 0.123047 12.849C0.123047 15.4188 0.865433 17.9315 2.35021 20.0444L12.2868 34.3782C12.4581 34.6067 12.6865 34.7209 12.972 34.7209C13.2576 34.7209 13.5431 34.6067 13.6573 34.3782L15.9987 31.0089C16.2842 30.6092 16.17 30.0952 15.7703 29.8097C15.3705 29.5242 14.8566 29.6384 14.571 30.0381L12.972 32.3795L3.72077 19.0736C2.46442 17.2462 1.83625 15.0762 1.83625 12.849C1.83625 6.68148 6.80453 1.7132 12.972 1.7132C19.1396 1.7132 24.1078 6.68148 24.1078 12.849C24.1078 15.0762 23.4226 17.2462 22.2233 19.0736L18.7969 24.0419C18.5114 24.4417 18.6256 24.9556 19.0254 25.2411C19.4251 25.5267 19.9391 25.4125 20.2246 25.0127L23.7081 19.9873C25.1358 17.8744 25.8782 15.3617 25.8782 12.7919C25.821 5.76777 20.0533 0 12.972 0Z" fill="white"/>
</svg>
