<svg width="30" height="30" viewBox="0 0 30 30" fill="none" xmlns="http://www.w3.org/2000/svg">
<path d="M5.62545 0.00461739C5.45967 0.0227511 5.3048 0.0969737 5.18592 0.215264L2.96515 2.46216C2.89381 2.5308 2.83673 2.61315 2.79722 2.70437C2.75772 2.7956 2.7366 2.89389 2.73509 2.99347C2.73359 3.09306 2.75172 3.19195 2.78845 3.28436C2.82517 3.37677 2.87974 3.46085 2.94896 3.53166C3.01818 3.60248 3.10067 3.65861 3.19159 3.69678C3.28252 3.73496 3.38005 3.7544 3.47849 3.75398C3.57693 3.75355 3.6743 3.73327 3.7649 3.69431C3.8555 3.65536 3.93751 3.59851 4.00613 3.5271L5.70641 1.80682L11.6979 7.86877L8.51708 11.0753C8.40101 11.1905 8.32566 11.3412 8.30266 11.504C8.27967 11.6669 8.31031 11.8329 8.38985 11.9764C9.42896 13.8429 10.8292 15.6256 12.3919 17.2074C13.9569 18.7915 15.7168 20.1942 17.5621 21.2449C17.7015 21.3239 17.8624 21.3553 18.0209 21.3342C18.1793 21.3131 18.3268 21.2407 18.4412 21.1278L21.622 17.9096L27.6134 23.9716L23.97 27.6462C19.2725 27.017 14.15 24.3947 9.72 19.9108C5.19665 15.3325 2.55655 9.99337 2.00512 5.15376C1.99374 5.0554 1.96332 4.96027 1.9156 4.8738C1.86788 4.78733 1.80379 4.71121 1.72699 4.64981C1.6502 4.5884 1.5622 4.5429 1.46802 4.5159C1.37384 4.4889 1.27533 4.48094 1.17811 4.49247C1.08089 4.504 0.986862 4.53479 0.901404 4.58308C0.815945 4.63138 0.740727 4.69623 0.680043 4.77394C0.619359 4.85165 0.574398 4.94069 0.547729 5.03598C0.521059 5.13127 0.513203 5.23094 0.524608 5.3293C1.12327 10.5835 3.95428 16.1818 8.67901 20.964C13.4102 25.7528 18.938 28.6058 24.1319 29.2026C24.2413 29.215 24.3521 29.2025 24.4561 29.166C24.5602 29.1296 24.6549 29.0701 24.7334 28.992L29.1749 24.4982C29.2445 24.4285 29.2997 24.3456 29.3374 24.2542C29.3751 24.1628 29.3945 24.0647 29.3945 23.9657C29.3945 23.8667 29.3751 23.7686 29.3374 23.6772C29.2997 23.5858 29.2445 23.5029 29.1749 23.4332L22.1425 16.3181C22.0039 16.1794 21.8168 16.1017 21.622 16.1017C21.4271 16.1017 21.2401 16.1794 21.1015 16.3181L17.8281 19.6299C16.2893 18.6917 14.7922 17.5184 13.4444 16.1542C12.0989 14.7923 10.9147 13.2641 9.98603 11.7072L13.2594 8.39539C13.3289 8.32573 13.3842 8.2428 13.4219 8.15141C13.4596 8.06001 13.479 7.96196 13.479 7.86292C13.479 7.76388 13.4596 7.66583 13.4219 7.57443C13.3842 7.48303 13.3289 7.4001 13.2594 7.33045L6.22691 0.215264C6.14845 0.137111 6.05374 0.0776479 5.94969 0.0412077C5.84565 0.00476743 5.73487 -0.00773272 5.62545 0.00461739Z" fill="white"/>
</svg>
