<svg width="58" height="40" viewBox="0 0 58 40" fill="none" xmlns="http://www.w3.org/2000/svg">
<path d="M54.1192 15.6153L54.1552 15.5908L50.0163 9.50885C48.9298 7.91233 47.1276 6.95912 45.1954 6.95912H40.0184V6.25294C40.0184 3.04106 37.4032 0.427979 34.1887 0.427979H9.53292C8.86975 0.427979 8.33218 0.965112 8.33218 1.62774C8.33218 2.29037 8.86975 2.8275 9.53292 2.8275H34.1886C36.0789 2.8275 37.6168 4.36415 37.6168 6.25294V16.3267C37.6168 16.9894 38.1544 17.5265 38.8176 17.5265H52.5668L54.8695 20.4649C55.3398 21.0648 55.5986 21.8148 55.5986 22.5768V31.6633H50.9037C50.2555 28.6346 47.5573 26.3563 44.3356 26.3563C41.1139 26.3563 38.4157 28.6346 37.7674 31.6633H17.6717C17.0234 28.6346 14.3252 26.3563 11.1035 26.3563C7.88178 26.3563 5.1836 28.6346 4.53532 31.6633H1.20074C0.537572 31.6633 0 32.2004 0 32.863C0 33.5257 0.537572 34.0628 1.20074 34.0628H4.46039C4.94285 37.2938 7.73782 39.7801 11.1036 39.7801C14.4693 39.7801 17.2643 37.2938 17.7467 34.0629H37.6923C38.1749 37.2938 40.9698 39.7801 44.3356 39.7801C47.7012 39.7801 50.4962 37.2938 50.9787 34.0629H56.7993C57.4624 34.0629 58 33.5258 58 32.8632V22.5768C58 21.2811 57.5597 20.0057 56.7602 18.9856L54.1192 15.6153ZM40.0183 9.35876H45.1953C46.3316 9.35876 47.3913 9.91929 48.0302 10.8582L50.9353 15.1271H40.0183V9.35876ZM11.1036 37.3806C8.72386 37.3806 6.78767 35.4461 6.78767 33.0683C6.78767 30.6905 8.72386 28.7559 11.1036 28.7559C13.4834 28.7559 15.4194 30.6905 15.4194 33.0683C15.4194 35.4461 13.4834 37.3806 11.1036 37.3806ZM44.3356 37.3806C41.9558 37.3806 40.0196 35.4461 40.0196 33.0683C40.0196 30.6905 41.9558 28.7559 44.3356 28.7559C46.7153 28.7559 48.6514 30.6905 48.6514 33.0683C48.6514 35.4461 46.7154 37.3806 44.3356 37.3806Z" fill="black"/>
<path d="M3.33435 17.4397C2.67118 17.4397 2.13361 17.9768 2.13361 18.6395C2.13361 19.3021 2.67118 19.8392 3.33435 19.8392H19.8843C20.5475 19.8392 21.085 19.3021 21.085 18.6395C21.085 17.9768 20.5475 17.4397 19.8843 17.4397H3.33435Z" fill="black"/>
<path d="M25.3073 9.58978C25.3073 8.92715 24.7697 8.39001 24.1065 8.39001H6.39944C5.73627 8.39001 5.1987 8.92715 5.1987 9.58978C5.1987 10.2524 5.73627 10.7895 6.39944 10.7895H24.1065C24.7697 10.7895 25.3073 10.2524 25.3073 9.58978Z" fill="black"/>
</svg>
