<svg width="72" height="66" viewBox="0 0 72 66" fill="none" xmlns="http://www.w3.org/2000/svg">
<path d="M61.2 14.9H60.48C61.2 12.38 61.2 9.86 60.48 7.34C59.04 3.38 54.72 0.5 50.4 0.5C46.44 0.5 39.96 5.54 36 10.94C32.04 5.54 25.56 0.5 21.6 0.5C17.28 0.5 12.96 3.38 11.52 7.34C10.44 9.86 10.44 12.38 11.52 14.9H10.8C4.68 14.9 0 19.58 0 25.7V54.5C0 60.62 4.68 65.3 10.8 65.3H61.2C67.32 65.3 72 60.62 72 54.5V25.7C72 19.58 67.32 14.9 61.2 14.9ZM50.4 7.7C51.84 7.7 53.28 8.78 53.64 9.86C54.36 11.3 53.64 13.1 52.2 14.9H41.76C44.64 11.66 48.6 8.06 50.4 7.7ZM18.36 9.86C18.72 8.78 20.16 7.7 21.6 7.7C23.4 8.06 27.72 11.66 30.24 14.9H19.8C18.36 13.1 17.64 11.66 18.36 9.86ZM64.8 54.5C64.8 56.66 63.36 58.1 61.2 58.1H10.8C8.64 58.1 7.2 56.66 7.2 54.5V36.5H64.8V54.5ZM64.8 29.3H7.2V25.7C7.2 23.54 8.64 22.1 10.8 22.1H61.2C63.36 22.1 64.8 23.54 64.8 25.7V29.3Z" fill="#F7C945"/>
<path d="M28.8 43.7H14.4V50.9H28.8V43.7Z" fill="#F7C945"/>
</svg>
