<svg width="45" height="45" viewBox="0 0 45 45" fill="none" xmlns="http://www.w3.org/2000/svg">
<path d="M19.7383 9.36267C19.7423 10.2057 20.0798 11.0128 20.677 11.6077C21.2743 12.2026 22.0828 12.537 22.9258 12.5377H28.3257C29.1695 12.5377 29.9786 12.2025 30.5752 11.6059C31.1718 11.0093 31.507 10.2001 31.507 9.35642C31.507 8.5127 31.1718 7.70354 30.5752 7.10694C29.9786 6.51034 29.1695 6.17517 28.3257 6.17517H22.9258C22.0808 6.17658 21.2709 6.51286 20.6734 7.11032C20.0759 7.70779 19.7397 8.51773 19.7383 9.36267ZM29.0132 9.36267C29.009 9.54252 28.9348 9.71364 28.8065 9.83968C28.6781 9.96572 28.5056 10.0367 28.3257 10.0377H22.9258C22.7451 10.0377 22.5718 9.9659 22.444 9.83814C22.3163 9.71038 22.2445 9.5371 22.2445 9.35642C22.2445 9.17574 22.3163 9.00246 22.444 8.8747C22.5718 8.74695 22.7451 8.67517 22.9258 8.67517H28.3257C28.5076 8.67677 28.6815 8.74971 28.8101 8.8783C28.9387 9.00689 29.0117 9.18083 29.0132 9.36267Z" fill="white"/>
<path d="M43.75 32.5C43.4188 32.501 43.1014 32.633 42.8672 32.8672C42.633 33.1014 42.501 33.4188 42.5 33.75C42.5822 35.8012 41.8652 37.8043 40.5 39.3375C40.0134 39.8669 39.4585 40.3293 38.85 40.7125C37.0127 41.7885 34.9398 42.398 32.8125 42.4875C32.65 42.5 32.5375 42.5 32.5 42.5H18.325L9.15 38.8375C9.02069 38.7944 8.88612 38.7692 8.75 38.7625V30H16.75C17.2373 30.8846 17.8065 31.7216 18.45 32.5C18.9074 33.1818 19.5055 33.7576 20.2041 34.1889C20.9027 34.6201 21.6855 34.8967 22.5 35H30V37.5H22.5C22.1685 37.5 21.8505 37.6317 21.6161 37.8661C21.3817 38.1005 21.25 38.4185 21.25 38.75C21.25 39.0815 21.3817 39.3995 21.6161 39.6339C21.8505 39.8683 22.1685 40 22.5 40H31.25C31.5812 39.999 31.8986 39.867 32.1328 39.6328C32.367 39.3986 32.499 39.0812 32.5 38.75V35H38.75C39.0812 34.999 39.3986 34.867 39.6328 34.6328C39.867 34.3986 39.999 34.0812 40 33.75V1.25C39.999 0.918783 39.867 0.601416 39.6328 0.367209C39.3986 0.133003 39.0812 0.000989204 38.75 0L27.975 0C27.6435 0 27.3255 0.131696 27.0911 0.366116C26.8567 0.600537 26.725 0.918479 26.725 1.25C26.725 1.58152 26.8567 1.89946 27.0911 2.13388C27.3255 2.3683 27.6435 2.5 27.975 2.5H37.5V32.5H22.5C21.375 32.5 19.525 30 18.6125 28.1875C18.51 27.9803 18.3514 27.8059 18.1547 27.6844C17.958 27.5629 17.7312 27.499 17.5 27.5H13.75V2.5H23.3125C23.644 2.5 23.962 2.3683 24.1964 2.13388C24.4308 1.89946 24.5625 1.58152 24.5625 1.25C24.5625 0.918479 24.4308 0.600537 24.1964 0.366116C23.962 0.131696 23.644 0 23.3125 0L12.5 0C12.1688 0.000989204 11.8514 0.133003 11.6172 0.367209C11.383 0.601416 11.251 0.918783 11.25 1.25V27.5H8.75V26.25C8.74901 25.9188 8.617 25.6014 8.38279 25.3672C8.14858 25.133 7.83122 25.001 7.5 25H1.25C0.918784 25.001 0.601416 25.133 0.367209 25.3672C0.133003 25.6014 0.000989204 25.9188 0 26.25L0 43.75C0.000989204 44.0812 0.133003 44.3986 0.367209 44.6328C0.601416 44.867 0.918784 44.999 1.25 45H7.5C7.83122 44.999 8.14858 44.867 8.38279 44.6328C8.617 44.3986 8.74901 44.0812 8.75 43.75V41.375L17.6125 44.9125C17.7595 44.9716 17.9166 45.0013 18.075 45H33.25C33.3553 44.9999 33.4602 44.9873 33.5625 44.9625C37.7125 44.625 44 42.3375 44.9 35.4625L44.9375 35.3125C44.9661 35.2277 44.9829 35.1394 44.9875 35.05C44.9875 35.0375 45 35.025 45 35V33.75C44.999 33.4188 44.867 33.1014 44.6328 32.8672C44.3986 32.633 44.0812 32.501 43.75 32.5ZM6.25 42.5H2.5V27.5H6.25V42.5Z" fill="white"/>
</svg>
