<svg width="22" height="22" viewBox="0 0 22 22" fill="none" xmlns="http://www.w3.org/2000/svg">
<path d="M9.97839 4.75104C9.9803 5.1522 10.1409 5.53629 10.4251 5.8194C10.7094 6.1025 11.0941 6.26161 11.4952 6.26194H14.065C14.4665 6.26194 14.8515 6.10244 15.1354 5.81854C15.4193 5.53463 15.5788 5.14957 15.5788 4.74807C15.5788 4.34656 15.4193 3.9615 15.1354 3.6776C14.8515 3.39369 14.4665 3.23419 14.065 3.23419H11.4952C11.0932 3.23486 10.7077 3.39489 10.4234 3.67921C10.1391 3.96353 9.97906 4.34895 9.97839 4.75104ZM14.3921 4.75104C14.3901 4.83663 14.3548 4.91806 14.2937 4.97804C14.2326 5.03802 14.1506 5.07182 14.065 5.07226H11.4952C11.4093 5.07226 11.3268 5.0381 11.266 4.9773C11.2052 4.91651 11.1711 4.83405 11.1711 4.74807C11.1711 4.66209 11.2052 4.57963 11.266 4.51883C11.3268 4.45803 11.4093 4.42388 11.4952 4.42388H14.065C14.1515 4.42464 14.2343 4.45935 14.2955 4.52054C14.3567 4.58173 14.3914 4.66451 14.3921 4.75104Z" fill="black"/>
<path d="M21.4049 15.7616C21.2473 15.762 21.0963 15.8249 20.9848 15.9363C20.8734 16.0478 20.8106 16.1988 20.8101 16.3564C20.8492 17.3325 20.508 18.2858 19.8584 19.0154C19.6268 19.2673 19.3627 19.4873 19.0732 19.6697C18.1989 20.1817 17.2124 20.4718 16.2001 20.5144C16.1227 20.5203 16.0692 20.5203 16.0514 20.5203H9.30585L4.9397 18.7774C4.87816 18.7569 4.81413 18.7449 4.74935 18.7417V14.5719H8.55634C8.78825 14.9928 9.05909 15.3911 9.36533 15.7616C9.58298 16.086 9.86761 16.3601 10.2001 16.5653C10.5325 16.7705 10.905 16.9021 11.2926 16.9513H14.8617V18.1409H11.2926C11.1349 18.1409 10.9836 18.2036 10.872 18.3152C10.7604 18.4267 10.6978 18.578 10.6978 18.7358C10.6978 18.8935 10.7604 19.0448 10.872 19.1564C10.9836 19.268 11.1349 19.3306 11.2926 19.3306H15.4565C15.6141 19.3302 15.7652 19.2673 15.8766 19.1559C15.9881 19.0444 16.0509 18.8934 16.0514 18.7358V16.9513H19.0256C19.1832 16.9508 19.3342 16.888 19.4457 16.7765C19.5571 16.6651 19.6199 16.514 19.6204 16.3564V0.890497C19.6199 0.73288 19.5571 0.581852 19.4457 0.4704C19.3342 0.358947 19.1832 0.296125 19.0256 0.295654L13.898 0.295654C13.7403 0.295654 13.589 0.358325 13.4774 0.46988C13.3659 0.581434 13.3032 0.732735 13.3032 0.890497C13.3032 1.04826 13.3659 1.19956 13.4774 1.31111C13.589 1.42267 13.7403 1.48534 13.898 1.48534H18.4307V15.7616H11.2926C10.7573 15.7616 9.87689 14.5719 9.44266 13.7094C9.39389 13.6107 9.31841 13.5278 9.22481 13.47C9.13122 13.4121 9.02327 13.3817 8.91325 13.3822H7.12872V1.48534H11.6793C11.837 1.48534 11.9883 1.42267 12.0999 1.31111C12.2114 1.19956 12.2741 1.04826 12.2741 0.890497C12.2741 0.732735 12.2114 0.581434 12.0999 0.46988C11.9883 0.358325 11.837 0.295654 11.6793 0.295654H6.53388C6.37626 0.296125 6.22523 0.358947 6.11378 0.4704C6.00233 0.581852 5.93951 0.73288 5.93903 0.890497V13.3822H4.74935V12.7874C4.74888 12.6297 4.68606 12.4787 4.5746 12.3673C4.46315 12.2558 4.31212 12.193 4.15451 12.1925H1.18029C1.02267 12.193 0.871647 12.2558 0.760195 12.3673C0.648742 12.4787 0.58592 12.6297 0.585449 12.7874L0.585449 21.1152C0.58592 21.2728 0.648742 21.4238 0.760195 21.5352C0.871647 21.6467 1.02267 21.7095 1.18029 21.71H4.15451C4.31212 21.7095 4.46315 21.6467 4.5746 21.5352C4.68606 21.4238 4.74888 21.2728 4.74935 21.1152V19.9849L8.96679 21.6684C9.03673 21.6965 9.1115 21.7106 9.18688 21.71H16.4083C16.4584 21.7099 16.5083 21.7039 16.557 21.6922C18.5319 21.5315 21.5239 20.443 21.9522 17.1713L21.9701 17.1C21.9837 17.0596 21.9917 17.0176 21.9938 16.975C21.9938 16.9691 21.9998 16.9632 21.9998 16.9513V16.3564C21.9993 16.1988 21.9365 16.0478 21.825 15.9363C21.7136 15.8249 21.5626 15.762 21.4049 15.7616ZM3.55966 20.5203H1.77513V13.3822H3.55966V20.5203Z" fill="black"/>
</svg>
