<svg width="20" height="11" viewBox="0 0 20 11" fill="none" xmlns="http://www.w3.org/2000/svg">
<path d="M6.05411 10.4584C6.05411 10.5795 6.02384 10.6703 5.93303 10.7611C5.7514 10.9427 5.47897 10.9427 5.29735 10.7914L0.151352 5.94809C0.0605406 5.85728 -5.26051e-07 5.7362 -5.38382e-07 5.61512C-5.50714e-07 5.49403 0.0605404 5.37295 0.121081 5.28214L5.26707 0.136147C5.4487 -0.0454761 5.72113 -0.0454761 5.90276 0.136147C6.08438 0.317771 6.08438 0.590205 5.90276 0.771829L1.12001 5.61512L5.90276 10.1254C5.99357 10.2162 6.05411 10.3373 6.05411 10.4584Z" fill="black"/>
<path d="M19.3731 5.46379C19.3731 5.70595 19.1612 5.91785 18.9191 5.91785L5.29732 5.91785C5.05516 5.91785 4.84326 5.70595 4.84326 5.46379C4.84326 5.22162 5.05516 5.00973 5.29732 5.00973L18.9191 5.00973C19.1612 5.00973 19.3731 5.22162 19.3731 5.46379Z" fill="black"/>
</svg>
