<svg width="49" height="49" viewBox="0 0 49 49" fill="none" xmlns="http://www.w3.org/2000/svg">
<circle cx="24.5" cy="24.5" r="24.5" fill="#F7C945"/>
<path d="M16.6627 16.2609H32.3324C33.0486 16.2609 33.7358 16.5159 34.2437 16.9704C34.7517 17.4248 35.0392 18.0417 35.0435 18.6864V32.76C35.0435 33.4071 34.7578 34.0277 34.2494 34.4853C33.741 34.9429 33.0514 35.2 32.3324 35.2H16.6789C15.9654 35.1924 15.2841 34.9319 14.7826 34.4751C14.2812 34.0184 13.9999 33.4021 14 32.76V18.6864C14 18.0456 14.2817 17.4308 14.7836 16.9764C15.2855 16.5219 15.9669 16.2647 16.6789 16.2609H16.6627ZM29.3308 18.3523C29.2051 18.3503 29.0803 18.3712 28.9638 18.4135C28.8473 18.4559 28.7415 18.5189 28.6526 18.5989C28.5638 18.6789 28.4937 18.7741 28.4467 18.879C28.3996 18.9838 28.3765 19.0961 28.3786 19.2092V21.2426C28.3765 21.3556 28.3996 21.4679 28.4467 21.5728C28.4937 21.6776 28.5638 21.7729 28.6526 21.8529C28.7415 21.9328 28.8473 21.9959 28.9638 22.0382C29.0803 22.0806 29.2051 22.1014 29.3308 22.0995H31.6868C31.9394 22.0995 32.1815 22.0092 32.3601 21.8485C32.5387 21.6878 32.639 21.4698 32.639 21.2426V19.2092C32.639 18.9819 32.5387 18.764 32.3601 18.6033C32.1815 18.4426 31.9394 18.3523 31.6868 18.3523H29.3308ZM32.6551 24.2635H30.7186C30.9065 24.7894 31.0045 25.3378 31.0091 25.8902C31.0091 27.4541 30.3188 28.9539 29.0901 30.0598C27.8614 31.1656 26.1949 31.7869 24.4572 31.7869C22.7195 31.7869 21.053 31.1656 19.8243 30.0598C18.5956 28.9539 17.9053 27.4541 17.9053 25.8902C17.902 25.3373 18.0002 24.7877 18.1958 24.2635H16.3077V32.2662C16.3077 32.4665 16.3961 32.6586 16.5535 32.8002C16.7108 32.9418 16.9243 33.0214 17.1468 33.0214H31.7998C32.0224 33.0214 32.2358 32.9418 32.3932 32.8002C32.5506 32.6586 32.639 32.4665 32.639 32.2662L32.6551 24.2635ZM24.5863 21.9978C23.7817 22.0235 23.0033 22.2618 22.3483 22.6831C21.6933 23.1044 21.1906 23.69 20.903 24.3667C20.6154 25.0435 20.5557 25.7815 20.7312 26.4887C20.9067 27.1958 21.3096 27.8408 21.8899 28.3432C22.4701 28.8455 23.2018 29.1829 23.9937 29.3133C24.7857 29.4438 25.6027 29.3614 26.343 29.0766C27.0833 28.7917 27.7139 28.3169 28.1563 27.7115C28.5987 27.1061 28.8332 26.3969 28.8305 25.6723C28.8221 25.1796 28.7054 24.6933 28.4872 24.2414C28.2689 23.7895 27.9534 23.381 27.5589 23.0394C27.1643 22.6978 26.6985 22.4299 26.1883 22.2511C25.6781 22.0723 25.1336 21.9862 24.5863 21.9978Z" fill="#575757"/>
</svg>
