<svg width="49" height="49" viewBox="0 0 49 49" fill="none" xmlns="http://www.w3.org/2000/svg">
<circle cx="24.5" cy="24.5" r="24.5" fill="#F7C945"/>
<path fill-rule="evenodd" clip-rule="evenodd" d="M26.9246 22.4566L27.0891 22.2931C27.6048 21.5162 28.3465 20.9139 29.2152 20.5665C30.084 20.2192 31.0387 20.1432 31.952 20.3488C33.0501 20.4997 34.063 21.0203 34.8216 21.8239C35.5801 22.6275 36.0385 23.6654 36.1201 24.7643C36.2162 25.3653 36.2651 25.9728 36.2663 26.5814V33.9588C36.2663 34.2313 36.2663 34.3222 35.919 34.304H32.0251C31.7508 34.304 31.6777 34.304 31.6777 33.9588C31.6777 31.6692 31.6777 29.3797 31.6777 27.0902C31.6914 26.5693 31.6298 26.0492 31.4949 25.5457C31.4014 25.1747 31.213 24.8341 30.9479 24.5569C30.6828 24.2797 30.3501 24.0755 29.9821 23.9639C29.6141 23.8523 29.2233 23.8373 28.8477 23.9202C28.4721 24.0032 28.1245 24.1813 27.8387 24.4372C27.5081 24.7097 27.2466 25.0556 27.0751 25.447C26.9036 25.8383 26.8271 26.2642 26.8515 26.6904C26.8515 28.8527 26.8515 31.0151 26.8515 33.1592C26.8515 33.45 26.8515 33.7407 26.8515 34.0133C26.8515 34.2858 26.8515 34.304 26.5407 34.304H22.592C22.3543 34.304 22.2629 34.304 22.2629 33.9951C22.2629 32.0508 22.2629 30.1065 22.2629 28.1623C22.2629 25.7637 22.2629 23.3651 22.2629 20.8939C22.2629 20.6395 22.2629 20.5487 22.592 20.5668H26.559C26.7967 20.5668 26.8515 20.5668 26.8515 20.8576C26.9246 21.3664 26.9246 21.8751 26.9246 22.4566Z" fill="#575757"/>
<path fill-rule="evenodd" clip-rule="evenodd" d="M19.8505 27.4177V33.9047C19.8505 34.1591 19.8505 34.2681 19.5032 34.2499H15.5911C15.3534 34.2499 15.262 34.2499 15.262 33.941C15.262 29.58 15.262 25.2372 15.262 20.8762C15.262 20.6582 15.262 20.5855 15.5545 20.5855H19.5397C19.8139 20.5855 19.8505 20.6764 19.8505 20.9126V27.4177Z" fill="#575757"/>
<path fill-rule="evenodd" clip-rule="evenodd" d="M17.6008 14.0069C17.9823 13.9779 18.3652 14.0409 18.717 14.1905C19.0687 14.3402 19.379 14.5721 19.6212 14.8664C19.8635 15.1608 20.0307 15.5089 20.1086 15.8813C20.1866 16.2537 20.1729 16.6392 20.0687 17.0052C19.8702 17.6182 19.4436 18.1327 18.8761 18.4435C18.3086 18.7542 17.6432 18.8378 17.0158 18.677C16.6599 18.6275 16.3202 18.4972 16.0231 18.2961C15.726 18.0951 15.4795 17.8287 15.3027 17.5176C15.1259 17.2065 15.0235 16.8592 15.0036 16.5025C14.9837 16.1457 15.0467 15.7892 15.1877 15.4606C15.3879 14.9989 15.7279 14.6108 16.1604 14.3502C16.5929 14.0896 17.0965 13.9696 17.6008 14.0069Z" fill="#575757"/>
</svg>
