<svg width="28" height="23" viewBox="0 0 28 23" fill="none" xmlns="http://www.w3.org/2000/svg">
<path d="M27.1345 16.91C27.5418 16.91 27.8982 16.4961 27.8982 16.0231V0.827763C27.8982 0.827763 27.8982 0.827763 27.8982 0.768637C27.8982 0.709511 27.8982 0.709512 27.8982 0.650386V0.59126V0.532133C27.8982 0.532133 27.8982 0.473007 27.8473 0.473007C27.8473 0.473007 27.8473 0.413881 27.7964 0.413881L27.7455 0.354756C27.7455 0.354756 27.7455 0.354756 27.7455 0.29563L27.6945 0.236504L27.6436 0.177377L27.5927 0.118251C27.5927 0.118251 27.5418 0.118252 27.5418 0.0591262C27.5418 0.0591262 27.4909 0.059126 27.4909 0H27.44C27.44 0 27.3891 0 27.3382 0H27.2873C27.2873 0 27.2873 0 27.2364 0H0.661818C0.661818 0 0.661818 0 0.610909 0C0.559999 0 0.56 0 0.509091 0H0.458182C0.407273 0 0.407272 0 0.407272 0C0.407272 0 0.356363 2.24667e-07 0.356363 0.0591262C0.356363 0.0591262 0.305454 0.0591253 0.305454 0.118251C0.305454 0.118251 0.254545 0.118251 0.254545 0.177377L0.203636 0.236504L0.152727 0.29563C0.152727 0.29563 0.152727 0.29563 0.152727 0.354756L0.101818 0.413881C0.101818 0.413881 0.101817 0.473007 0.0509083 0.473007C0.0509083 0.473007 0.0509091 0.532133 0 0.532133V0.59126V0.650386C0 0.709512 0 0.709511 0 0.768637C0 0.768637 0 0.768637 0 0.827763V22.1131C0 22.5861 0.356364 23 0.763636 23H27.2364C27.6436 23 28 22.5861 28 22.1131C28 21.6401 27.6436 21.2262 27.2364 21.2262H1.42545V2.71979L13.3891 14.1902C13.44 14.2494 13.5418 14.3085 13.5927 14.3085H13.6436C13.6945 14.3085 13.7964 14.3676 13.8473 14.3676C13.8982 14.3676 14 14.3676 14.0509 14.3085H14.1018C14.1527 14.2494 14.2545 14.2494 14.3055 14.1902L26.2691 2.71979V16.0231C26.3709 16.4961 26.7273 16.91 27.1345 16.91ZM13.8982 12.3573L2.8 1.71465H24.9964L13.8982 12.3573Z" fill="#575757"/>
</svg>
