<svg width="70" height="70" viewBox="0 0 70 70" fill="none" xmlns="http://www.w3.org/2000/svg">
<path d="M35 0C15.6712 0 0 15.6712 0 35C0 54.3288 15.6712 70 35 70C54.3288 70 70 54.3288 70 35C70 15.6712 54.3288 0 35 0ZM33.6175 12.775C37.1875 12.775 40.0925 15.68 40.0925 19.25C40.0925 22.82 37.1875 25.725 33.6175 25.725C30.0475 25.725 27.1425 22.82 27.1425 19.25C27.1425 15.68 30.0475 12.775 33.6175 12.775ZM44.6425 57.225H38.3425H28.8925H22.5925V53.725H27.1425V32.025H20.9825V28.525H28.8925H38.3425C39.2875 28.525 40.0925 29.295 40.0925 30.275V53.725H44.6425V57.225Z" fill="black"/>
</svg>
