<svg width="29" height="30" viewBox="0 0 29 30" fill="none" xmlns="http://www.w3.org/2000/svg">
<path d="M5.10592 0.00461739C4.94014 0.0227511 4.78527 0.0969737 4.66639 0.215264L2.44561 2.46216C2.37428 2.5308 2.31719 2.61315 2.27769 2.70437C2.23819 2.7956 2.21707 2.89389 2.21556 2.99347C2.21405 3.09306 2.23219 3.19195 2.26891 3.28436C2.30564 3.37677 2.36021 3.46085 2.42943 3.53166C2.49865 3.60248 2.58114 3.65861 2.67206 3.69678C2.76299 3.73496 2.86052 3.7544 2.95896 3.75398C3.0574 3.75355 3.15477 3.73327 3.24537 3.69431C3.33597 3.65536 3.41798 3.59851 3.4866 3.5271L5.18688 1.80682L11.1783 7.86877L7.99755 11.0753C7.88148 11.1905 7.80613 11.3412 7.78313 11.504C7.76013 11.6669 7.79077 11.8329 7.87032 11.9764C8.90943 13.8429 10.3096 15.6256 11.8723 17.2074C13.4374 18.7915 15.1973 20.1942 17.0426 21.2449C17.182 21.3239 17.3429 21.3553 17.5013 21.3342C17.6598 21.3131 17.8072 21.2407 17.9216 21.1278L21.1024 17.9096L27.0939 23.9716L23.4504 27.6462C18.7529 27.017 13.6305 24.3947 9.20047 19.9108C4.67712 15.3325 2.03702 9.99337 1.48559 5.15376C1.47421 5.0554 1.44379 4.96027 1.39607 4.8738C1.34835 4.78733 1.28426 4.71121 1.20746 4.64981C1.13067 4.5884 1.04266 4.5429 0.948486 4.5159C0.854307 4.4889 0.755795 4.48094 0.658575 4.49247C0.561354 4.504 0.467331 4.53479 0.381872 4.58308C0.296414 4.63138 0.221195 4.69623 0.160511 4.77394C0.0998274 4.85165 0.0548669 4.94069 0.0281973 5.03598C0.00152768 5.13127 -0.00632871 5.23094 0.00507693 5.3293C0.603742 10.5835 3.43475 16.1818 8.15948 20.964C12.8907 25.7528 18.4185 28.6058 23.6124 29.2026C23.7218 29.215 23.8326 29.2025 23.9366 29.166C24.0407 29.1296 24.1354 29.0701 24.2138 28.992L28.6554 24.4982C28.725 24.4285 28.7802 24.3456 28.8179 24.2542C28.8556 24.1628 28.875 24.0647 28.875 23.9657C28.875 23.8667 28.8556 23.7686 28.8179 23.6772C28.7802 23.5858 28.725 23.5029 28.6554 23.4332L21.6229 16.3181C21.4843 16.1794 21.2973 16.1017 21.1024 16.1017C20.9075 16.1017 20.7205 16.1794 20.5819 16.3181L17.3086 19.6299C15.7697 18.6917 14.2727 17.5184 12.9249 16.1542C11.5794 14.7923 10.3952 13.2641 9.4665 11.7072L12.7398 8.39539C12.8094 8.32573 12.8647 8.2428 12.9024 8.15141C12.9401 8.06001 12.9595 7.96196 12.9595 7.86292C12.9595 7.76388 12.9401 7.66583 12.9024 7.57443C12.8647 7.48303 12.8094 7.4001 12.7398 7.33045L5.70738 0.215264C5.62891 0.137111 5.53421 0.0776479 5.43016 0.0412077C5.32611 0.00476743 5.21534 -0.00773272 5.10592 0.00461739Z" fill="#575757"/>
</svg>
