<svg width="38" height="38" viewBox="0 0 38 38" fill="none" xmlns="http://www.w3.org/2000/svg">
<path d="M12.2941 0H7.82353C7.20614 0 6.70588 0.500259 6.70588 1.11765V4.47059H5.58824C2.50666 4.47059 0 6.97725 0 10.0588V32.4118C0 35.4933 2.50666 38 5.58824 38H32.4118C35.4933 38 38 35.4933 38 32.4118V10.0588C38 6.97725 35.4933 4.47059 32.4118 4.47059H31.2941V1.11765C31.2941 0.500259 30.7939 0 30.1765 0H25.7059C25.0885 0 24.5882 0.500259 24.5882 1.11765V4.47059H22.3529V1.11765C22.3529 0.500259 21.8527 0 21.2353 0H16.7647C16.1473 0 15.6471 0.500259 15.6471 1.11765V4.47059H13.4118V1.11765C13.4118 0.500259 12.9115 0 12.2941 0ZM8.94118 2.23529H11.1765V8.94118H8.94118V2.23529ZM35.7647 32.4118C35.7647 34.2608 34.2608 35.7647 32.4118 35.7647H5.58824C3.7392 35.7647 2.23529 34.2608 2.23529 32.4118V15.6471H35.7647V32.4118ZM26.8235 2.23529H29.0588V8.94118H26.8235V2.23529ZM17.8824 2.23529H20.1176V8.94118H17.8824V2.23529ZM15.6471 6.70588V10.0588C15.6471 10.6762 16.1473 11.1765 16.7647 11.1765H21.2353C21.8527 11.1765 22.3529 10.6762 22.3529 10.0588V6.70588H24.5882V10.0588C24.5882 10.6762 25.0885 11.1765 25.7059 11.1765H30.1765C30.7939 11.1765 31.2941 10.6762 31.2941 10.0588V6.70588H32.4118C34.2608 6.70588 35.7647 8.20979 35.7647 10.0588V13.4118H2.23529V10.0588C2.23529 8.20979 3.7392 6.70588 5.58824 6.70588H6.70588V10.0588C6.70588 10.6762 7.20614 11.1765 7.82353 11.1765H12.2941C12.9115 11.1765 13.4118 10.6762 13.4118 10.0588V6.70588H15.6471Z" fill="white"/>
<path d="M14.936 31.8329C15.1505 32.0469 15.4306 32.1538 15.7112 32.1538C15.9919 32.1538 16.272 32.0469 16.4864 31.8329L27.4479 20.8711C27.8763 20.4427 27.8763 19.7491 27.4479 19.3211C27.0196 18.8932 26.3259 18.8927 25.898 19.3211L15.7112 29.5077L12.1018 25.8982C11.6735 25.4698 10.9798 25.4698 10.5519 25.8982C10.1239 26.3266 10.1235 27.0202 10.5519 27.4482L14.936 31.8329Z" fill="white"/>
</svg>
