<svg width="17" height="20" viewBox="0 0 17 20" fill="none" xmlns="http://www.w3.org/2000/svg">
<path d="M12.7948 0.29659C12.694 0.306835 12.5967 0.339173 12.5099 0.391291C12.423 0.44341 12.3487 0.514035 12.2922 0.598138L12.0337 0.985835H11.2583C11.1613 0.986217 11.0655 1.00704 10.9772 1.04696C10.8888 1.08687 10.8099 1.14499 10.7455 1.21749C10.6811 1.28999 10.6327 1.37524 10.6036 1.4677C10.5744 1.56016 10.5651 1.65774 10.5761 1.75405L11.0357 5.42999C11.0492 5.54947 11.0938 5.66332 11.1649 5.76026C11.1649 5.76026 11.4875 6.19802 11.9404 6.64334C12.3933 7.08865 12.9323 7.64963 13.7929 7.64847C14.6512 7.64618 15.1807 7.08827 15.631 6.64334C16.0812 6.1984 16.4065 5.76026 16.4065 5.76026C16.4776 5.66332 16.5222 5.54947 16.5357 5.42999L16.9952 1.75405C17.0063 1.65774 16.997 1.56016 16.9678 1.4677C16.9386 1.37524 16.8903 1.28999 16.8259 1.21749C16.7615 1.14499 16.6826 1.08687 16.5942 1.04696C16.5059 1.00704 16.4101 0.986217 16.3131 0.985835H15.5376L15.2792 0.598138C15.2155 0.504601 15.1298 0.428162 15.0296 0.375573C14.9295 0.322985 14.8179 0.295858 14.7047 0.29659H12.8666C12.8427 0.295343 12.8187 0.295343 12.7948 0.29659ZM4.9828 1.21558C4.81084 1.23363 4.65195 1.31563 4.53762 1.44532L3.04415 3.15406L0.473647 4.00843C0.336011 4.05371 0.216145 4.14122 0.131075 4.2585C0.0460047 4.37579 5.61739e-05 4.51689 -0.000244141 4.66178C-0.000244141 7.457 0.223397 10.3938 1.15576 13.0403C2.08813 15.6868 3.76801 18.051 6.57679 19.5163C6.67449 19.5667 6.78281 19.593 6.89272 19.593C7.00264 19.593 7.11096 19.5667 7.20865 19.5163C11.6891 17.1789 13.3948 13.4907 13.7857 8.85464C13.7933 8.7641 13.7829 8.67296 13.7553 8.58642C13.7276 8.49988 13.6832 8.41964 13.6245 8.35027C13.5659 8.2809 13.4941 8.22378 13.4133 8.18215C13.3326 8.14052 13.2444 8.11521 13.1539 8.10767C13.0633 8.10012 12.9722 8.11049 12.8856 8.13818C12.7991 8.16586 12.7189 8.21033 12.6495 8.26903C12.5802 8.32773 12.5231 8.39952 12.4815 8.48029C12.4399 8.56106 12.4146 8.64923 12.4071 8.73977C12.0483 12.9956 10.732 15.9681 6.90708 18.0948C4.63183 16.8004 3.27269 14.8876 2.46256 12.588C1.66485 10.3238 1.42009 7.71403 1.39271 5.14998L3.66164 4.39612C3.7783 4.35721 3.88242 4.2878 3.96321 4.1951L5.36334 2.59406H6.89272H8.3862L8.86727 3.23303C8.92147 3.30568 8.98945 3.36695 9.06733 3.41332C9.14522 3.45969 9.23147 3.49026 9.32117 3.50329C9.41088 3.51631 9.50226 3.51154 9.59012 3.48924C9.67798 3.46694 9.76058 3.42755 9.83321 3.37332C9.90584 3.31909 9.96707 3.25107 10.0134 3.17317C10.0597 3.09528 10.0903 3.00902 10.1032 2.91931C10.1162 2.82961 10.1114 2.73823 10.0891 2.65039C10.0667 2.56256 10.0273 2.47998 9.97301 2.40739L9.28372 1.4884C9.21906 1.40313 9.13545 1.33409 9.03948 1.28674C8.94352 1.23938 8.83785 1.21503 8.73085 1.21558H6.89272H5.0546C5.03068 1.21433 5.00671 1.21433 4.9828 1.21558ZM13.2328 1.67507H14.3386L14.5899 2.05558C14.6527 2.15045 14.738 2.22829 14.8383 2.28216C14.9385 2.33603 15.0505 2.36425 15.1643 2.36431H15.5376L15.2002 5.04947C15.1316 5.13872 14.9673 5.35777 14.6617 5.65974C14.2988 6.01834 13.8063 6.26996 13.7929 6.27C13.7787 6.27002 13.2749 6.01883 12.9097 5.65974C12.6022 5.35736 12.4402 5.13893 12.3712 5.04947L12.0337 2.36431H12.4071C12.5209 2.36425 12.6329 2.33603 12.7331 2.28216C12.8333 2.22829 12.9187 2.15045 12.9815 2.05558L13.2328 1.67507Z" fill="#2D2C2C"/>
</svg>
